<?xml version="1.0" encoding="utf-8"?>
<!-- Generator: Adobe Illustrator 16.0.0, SVG Export Plug-In . SVG Version: 6.00 Build 0)  -->
<!DOCTYPE svg PUBLIC "-//W3C//DTD SVG 1.1//EN" "http://www.w3.org/Graphics/SVG/1.1/DTD/svg11.dtd">
<svg version="1.1" id="圖層_1" xmlns="http://www.w3.org/2000/svg" xmlns:xlink="http://www.w3.org/1999/xlink" x="0px" y="0px"
	 width="35px" height="35px" viewBox="0 0 35 35" enable-background="new 0 0 35 35" xml:space="preserve">
<path fill-rule="evenodd" clip-rule="evenodd" fill="#9059FC" d="M21.214,21.56c-0.016,1.751-1.091,3.199-2.628,3.669
	c-1.574,0.478-3.266-0.109-4.183-1.508c-0.861-1.313-1.694-2.646-2.504-3.991c-0.279-0.465-0.392-0.364-0.62,0.025
	c-0.802,1.37-1.634,2.723-2.45,4.087c-0.699,1.168-1.836,1.761-3.081,1.676c-2.968-0.201-4.216-3.141-3.132-5.172
	c0.301-0.563,0.632-1.111,0.958-1.661c0.709-1.191,1.42-2.384,2.138-3.571c1.291-2.136,4.142-2.344,5.598-0.319
	c1.159,1.613,2.146,3.351,3.206,5.032c0.507,0.805,1.003,1.613,1.511,2.417c0.596,0.943,1.455,1.224,2.266,0.743
	c0.811-0.479,0.976-1.432,0.385-2.399c-1.789-2.929-3.588-5.854-5.383-8.781c-0.238-0.387-0.458-0.787-0.701-1.175
	c-0.448-0.715-1.341-0.725-1.794-0.01c-0.292,0.463-0.533,0.957-0.823,1.423c-0.349,0.559-0.825,0.696-1.354,0.428
	c-0.527-0.268-0.78-0.833-0.534-1.388c0.339-0.768,0.698-1.543,1.287-2.155c1.498-1.554,3.826-1.37,4.947,0.406
	c2.153,3.412,4.223,6.877,6.32,10.323C21.018,20.276,21.241,20.951,21.214,21.56z M4.435,21.931
	c-0.026,0.206,0.024,0.414,0.131,0.613c0.552,1.032,1.891,1.046,2.538,0.002c1.008-1.633,1.989-3.278,2.981-4.918
	c0.117-0.193,0.242-0.418,0.128-0.618c-0.343-0.601-0.673-1.254-1.438-1.4c-0.73-0.142-1.08,0.371-1.4,0.912
	c-0.896,1.507-1.799,3.009-2.7,4.512C4.513,21.304,4.381,21.584,4.435,21.931z"/>
<path fill-rule="evenodd" clip-rule="evenodd" fill="#B28AFF" d="M19.658,10.235c0.47,0.899,1.075,1.739,1.63,2.61
	c0.43,0.675,0.225,1.408-0.477,1.75c-0.557,0.27-1.05,0.114-1.471-0.557c-0.766-1.222-1.497-2.467-2.241-3.701
	c-0.094-0.156-0.165-0.329-0.272-0.474c-0.624-0.844-0.111-1.956,1.153-1.992c0.492-0.015,0.985,0.037,1.478,0.037
	c2.888,0.003,5.778-0.005,8.666,0.003c1.897,0.005,3.351,1.015,3.865,2.659c0.676,2.168-0.552,4.248-2.794,4.701
	c-0.383,0.08-0.213,0.255-0.111,0.418c0.614,0.993,1.242,1.979,1.851,2.976c0.438,0.715,0.95,1.393,1.175,2.22
	c0.528,1.946-0.733,3.867-2.869,4.374c-1.412,0.334-2.822-0.168-3.654-1.396c-1.27-1.875-2.522-3.762-3.723-5.684
	c-1.121-1.786,0.237-4.397,2.452-4.757c1.268-0.207,2.554-0.085,3.832-0.11c1.052-0.021,1.808-0.648,1.821-1.555
	c0.014-0.965-0.712-1.633-1.798-1.633c-2.742-0.003-5.485,0.003-8.227,0.009C19.858,10.135,19.761,10.103,19.658,10.235z
	 M25.227,15.598c-0.372,0.044-0.789-0.14-1.113,0.246c-0.49,0.576-0.54,1.021-0.102,1.679c1.062,1.595,2.125,3.188,3.194,4.776
	c0.552,0.82,1.402,1.037,2.116,0.553c0.688-0.468,0.798-1.307,0.287-2.128c-0.848-1.361-1.719-2.711-2.519-4.101
	C26.657,15.873,26.125,15.448,25.227,15.598z"/>
</svg>
