<?xml version="1.0" encoding="utf-8"?>
<!-- Generator: Adobe Illustrator 16.0.0, SVG Export Plug-In . SVG Version: 6.00 Build 0)  -->
<!DOCTYPE svg PUBLIC "-//W3C//DTD SVG 1.1//EN" "http://www.w3.org/Graphics/SVG/1.1/DTD/svg11.dtd">
<svg version="1.1" id="圖層_1" xmlns="http://www.w3.org/2000/svg" xmlns:xlink="http://www.w3.org/1999/xlink" x="0px" y="0px"
	 width="28px" height="28px" viewBox="0 0 28 28" enable-background="new 0 0 28 28" xml:space="preserve">
<g transform="matrix(1 0 0 1 -53 -3 )">
	<path fill="#FFFFFF" fill-opacity="0.9961" d="M76.078,14.867c0.219-0.219,0.328-0.492,0.328-0.82c0-0.34-0.109-0.62-0.328-0.838
		l-1.658-1.641c-0.23-0.231-0.505-0.347-0.82-0.347s-0.59,0.116-0.82,0.347l-7.438,7.418l-4.12-4.119
		c-0.231-0.231-0.504-0.346-0.82-0.346s-0.589,0.115-0.82,0.346l-1.659,1.641c-0.219,0.219-0.328,0.498-0.328,0.838
		c0,0.328,0.109,0.601,0.328,0.82l6.599,6.6c0.231,0.23,0.504,0.346,0.82,0.346c0.328,0,0.607-0.114,0.838-0.346L76.078,14.867z
		 M79.123,9.973C80.374,12.118,81,14.46,81,17s-0.626,4.883-1.877,7.027c-1.252,2.145-2.951,3.844-5.096,5.096
		C71.883,30.374,69.54,31,67,31s-4.882-0.626-7.027-1.877c-2.145-1.252-3.843-2.951-5.095-5.096S53,19.54,53,17
		s0.626-4.882,1.877-7.027c1.252-2.145,2.95-3.843,5.095-5.095C62.118,3.626,64.46,3,67,3s4.883,0.626,7.027,1.877
		C76.172,6.129,77.871,7.828,79.123,9.973z"/>
</g>
</svg>
