<?xml version="1.0" encoding="utf-8"?>
<svg version="1.1" xmlns:xlink="http://www.w3.org/1999/xlink" width="34px" height="34px" xmlns="http://www.w3.org/2000/svg">
  <g transform="matrix(1 0 0 1 -895 -432 )">
    <path d="M 7.127361365021329 28.74376141205113  C 7.389802965671338 28.48163927774396  7.521023765996343 28.171231487117062  7.521023765996343 27.81253804017042  C 7.521023765996343 27.453844593223778  7.389802965671338 27.143436802596877  7.127361365021329 26.881314668289715  C 6.864919764371319 26.61919253398255  6.554133658338412 26.48813146682897  6.195003046922608 26.48813146682897  C 5.835872435506805 26.48813146682897  5.525086329473899 26.61919253398255  5.262644728823887 26.881314668289715  C 5.000203128173879 27.143436802596877  4.868982327848873 27.453844593223778  4.868982327848873 27.81253804017042  C 4.868982327848873 28.171231487117062  5.000203128173879 28.48163927774396  5.262644728823887 28.74376141205113  C 5.525086329473899 29.005883546358287  5.835872435506805 29.13694461351187  6.195003046922608 29.13694461351187  C 6.554133658338412 29.13694461351187  6.864919764371319 29.005883546358287  7.127361365021329 28.74376141205113  Z M 17.269347958561855 16.751673767498477  C 18.312208003250053 17.793264353824306  19.510461100954704 18.5830797321972  20.864107251675808 19.121119902617167  L 6.733698964046313 33.234327449786974  C 6.222628478569979 33.74477581659566  5.601056266504165 34  4.868982327848873 34  C 4.150721105017267 34  3.5222425350396107 33.74477581659566  2.9835466179159047 33.234327449786974  L 0.7873248019500305 30.99939135727328  C 0.2624416006500101 30.502738892270237  0 29.881923311016433  0 29.13694461351187  C 0 28.405761817812945  0.2624416006500101 27.778048285656315  0.7873248019500305 27.253804017041997  L 14.897014015843999 13.161290322580644  C 15.435709932967702 14.513288699533371  16.226487913873655 15.71008318117265  17.269347958561855 16.751673767498477  Z M 33.82388787324802 9.601947656725503  C 33.94129595774935 9.7399066747819  34.00000000000001 9.912355447352406  34 10.119293974437005  C 34.00000000000001 10.65733414485697  33.84115376802763 11.388516940555894  33.52346130408287 12.31284236153378  C 32.87426366036969 14.161493203489549  31.738167783871624 15.66179752485291  30.115173674588664 16.81375532562386  C 28.492179565305708 17.965713126394803  26.706886045094453 18.54169202678028  24.759293113954904 18.54169202678028  C 22.20394068657323 18.54169202678028  20.018078407475116 17.63461148305944  18.201706276660573 15.820450395617772  C 16.385334145846027 14.006289308176097  15.477148080438758 11.823087847433554  15.477148080438758 9.270846013390141  C 15.477148080438758 6.7186041793467215  16.385334145846027 4.535402718604178  18.201706276660573 2.7212416311625076  C 20.018078407475116 0.9070805437208334  22.20394068657323 0  24.759293113954904 0  C 25.56043063172862 0  26.399553118017472 0.11381618989653242  27.27666057282145 0.3414485696895935  C 28.153768027625432 0.5690809494826545  28.89620150314849 0.8898356664637865  29.503960999390614 1.3037127206329895  C 29.724964452569573 1.4554676404950264  29.83546617915905 1.6486102657739863  29.83546617915905 1.8831405964698729  C 29.83546617915905 2.1176709271657517  29.724964452569573 2.3108135524447118  29.503960999390614 2.4625684723067565  L 23.43327239488117 5.9598295800365175  L 23.43327239488117 10.595252586731588  L 27.432053625837902 12.809494826536822  C 27.50111720495633 12.768107121119904  28.04671947999188 12.433556502333127  29.068860450944545 11.805842970176506  C 30.091001421897218 11.17812943801988  31.026812918951858 10.619395414891457  31.87629494210847 10.129640900791234  C 32.725776965265084 9.63988638669101  33.21267519804997 9.395009129640899  33.33698964046313 9.395009129640899  C 33.5441803778184 9.395009129640899  33.7064797887467 9.463988638669102  33.82388787324802 9.601947656725503  Z " fill-rule="nonzero" fill="#797979" stroke="none" transform="matrix(1 0 0 1 895 432 )" />
  </g>
</svg>