<?xml version="1.0" encoding="utf-8"?>
<!-- Generator: Adobe Illustrator 16.0.0, SVG Export Plug-In . SVG Version: 6.00 Build 0)  -->
<!DOCTYPE svg PUBLIC "-//W3C//DTD SVG 1.1//EN" "http://www.w3.org/Graphics/SVG/1.1/DTD/svg11.dtd">
<svg version="1.1" id="圖層_1" xmlns="http://www.w3.org/2000/svg" xmlns:xlink="http://www.w3.org/1999/xlink" x="0px" y="0px"
	 width="34px" height="34px" viewBox="0 0 34 34" enable-background="new 0 0 34 34" xml:space="preserve">
<g transform="matrix(1 0 0 1 -895 -432 )">
	<path fill="#FFFFFF" d="M902.127,460.744c0.262-0.264,0.394-0.572,0.394-0.932c0-0.358-0.131-0.67-0.394-0.933
		c-0.263-0.262-0.573-0.394-0.933-0.394c-0.359,0-0.67,0.132-0.932,0.394c-0.263,0.263-0.394,0.573-0.394,0.933
		c0,0.358,0.131,0.668,0.394,0.932c0.262,0.262,0.573,0.393,0.932,0.393C901.554,461.137,901.865,461.006,902.127,460.744z
		 M912.27,448.751c1.042,1.042,2.24,1.832,3.595,2.37l-14.13,14.113c-0.511,0.51-1.133,0.766-1.865,0.766
		c-0.718,0-1.347-0.256-1.886-0.766L895.787,463c-0.525-0.497-0.787-1.118-0.787-1.863c0-0.729,0.262-1.357,0.787-1.883
		l14.11-14.093C910.436,446.513,911.227,447.71,912.27,448.751z M928.824,441.602c0.117,0.138,0.176,0.31,0.176,0.517
		c0,0.538-0.158,1.27-0.477,2.194c-0.648,1.849-1.785,3.349-3.408,4.501s-3.408,1.727-5.355,1.727c-2.556,0-4.742-0.906-6.559-2.721
		c-1.816-1.814-2.724-3.997-2.724-6.549s0.908-4.736,2.724-6.55c1.816-1.813,4.003-2.721,6.559-2.721
		c0.801,0,1.641,0.114,2.518,0.341c0.877,0.228,1.619,0.548,2.228,0.962c0.222,0.152,0.332,0.345,0.332,0.58
		c0,0.234-0.11,0.427-0.332,0.579l-6.069,3.498v4.635l3.998,2.214c0.068-0.042,0.614-0.376,1.637-1.004
		c1.021-0.627,1.959-1.187,2.809-1.676c0.85-0.49,1.336-0.735,1.46-0.735C928.545,441.395,928.707,441.464,928.824,441.602z"/>
</g>
</svg>
