<?xml version="1.0" encoding="utf-8"?>
<!-- Generator: Adobe Illustrator 16.0.0, SVG Export Plug-In . SVG Version: 6.00 Build 0)  -->
<!DOCTYPE svg PUBLIC "-//W3C//DTD SVG 1.1//EN" "http://www.w3.org/Graphics/SVG/1.1/DTD/svg11.dtd">
<svg version="1.1" id="圖層_1" xmlns="http://www.w3.org/2000/svg" xmlns:xlink="http://www.w3.org/1999/xlink" x="0px" y="0px"
	 width="394.787px" height="89.152px" viewBox="0 0 394.787 89.152" enable-background="new 0 0 394.787 89.152"
	 xml:space="preserve">
<polygon fill="#0D5AA0" points="202.358,88.917 188.213,88.917 202.142,41.182 216.287,41.182 "/>
<path fill="#0D5AA0" d="M154.744,41.181c-4.271,0-8.541,0-12.803,0c-5.641,13.36-4.551,28.612,2.938,41.023
	c1.342,2.23,3.494,3.869,6.006,4.575c2.51,0.706,5.193,0.437,7.504-0.768c17.563-9.116,30.207-25.527,34.549-44.833
	c-4.279,0-8.551,0-12.83,0c-2.439,12.445-9.908,23.34-20.646,30.096c-0.977,0.618-2.18,0.759-3.277,0.393s-1.969-1.212-2.369-2.292
	C150.361,60.233,150.693,50.089,154.744,41.181z"/>
<path fill="#0D5AA0" d="M114.732-0.07l-5.178,17.344h-42.76c-10.379,0-19.609,6.634-22.93,16.49L25.24,89.083H0l18.815-57.297
	C25.066,12.751,42.828-0.07,62.822-0.07H114.732L114.732-0.07z"/>
<polygon fill="#0D5AA0" points="101.293,42.332 87.557,89.082 61.577,89.082 75.608,42.332 "/>
<polygon fill="#EF3066" points="138.516,21.545 118.811,89.082 92.621,89.082 112.736,21.545 138.516,21.545 "/>
<path fill="#0D5AA0" d="M72.164,42.332l-3.521,11.417c-1.07,3.442-4.252,5.796-7.852,5.796H40.057l3.436-11.363
	c1.063-3.495,4.277-5.875,7.922-5.856C59.369,42.385,72.227,42.393,72.164,42.332z"/>
<path fill="#0D5AA0" d="M108.326,21.537l-3.521,11.364c-1.07,3.441-4.254,5.796-7.854,5.796H76.217l3.436-11.364
	c1.063-3.495,4.277-5.875,7.922-5.856C95.531,21.528,108.395,21.597,108.326,21.537z"/>
<path fill="#EF3066" d="M146.152-0.07l-3.521,11.436c-1.072,3.451-4.254,5.908-7.854,5.908h-20.734l3.443-11.47
	c1.055-3.495,4.277-5.865,7.922-5.865h20.742V-0.07H146.152z"/>
<path fill="#0D5AA0" d="M219.015,28.439c-0.515,1.855-1.654,3.47-3.406,4.838c-1.752,1.367-3.558,2.057-5.412,2.057
	c-1.857,0-3.277-0.688-4.264-2.057c-0.984-1.368-1.222-2.98-0.707-4.838c0.516-1.855,1.655-3.47,3.407-4.837
	c1.753-1.367,3.558-2.058,5.412-2.058c1.856,0,3.276,0.688,4.265,2.058C219.301,24.969,219.537,26.583,219.015,28.439z"/>
<path fill="#0D5AA0" d="M244.69,74.614c-0.532,1.813-1.647,3.232-3.34,4.263c-1.688,1.002-3.781,1.499-6.272,1.499
	c-6.711,0-9.238-2.807-7.603-8.42c-3.504,0-7.008,0-10.512,0c-0.959,3.286-0.967,6.171-0.018,8.664
	c0.977,2.492,2.859,4.462,5.648,5.899c2.797,1.42,6.151,2.126,10.065,2.126c5.639,0,10.481-1.246,14.536-3.738
	c4.062-2.52,6.736-5.971,8.025-10.371c1.16-3.957,0.758-7.27-1.193-9.918c-1.95-2.65-5.646-4.881-11.086-6.678
	c-2.955-0.977-5.1-2.021-6.448-3.146c-1.324-1.114-1.752-2.501-1.267-4.156c0.517-1.77,1.642-3.188,3.373-4.263
	c1.744-1.098,3.889-1.639,6.451-1.639c2.658,0,4.523,0.653,5.611,1.951c1.09,1.28,1.299,3.086,0.619,5.413c3.496,0,6.99,0,10.477,0
	c0.891-3.052,0.898-5.777,0.008-8.177c-0.861-2.396-2.518-4.253-4.977-5.552c-2.457-1.324-5.498-1.987-9.133-1.987
	c-3.609,0-7.051,0.604-10.313,1.813c-3.24,1.211-5.962,2.901-8.146,5.063c-2.162,2.146-3.645,4.584-4.445,7.34
	c-1.543,5.29,0.121,9.49,4.984,12.61c1.787,1.143,4.322,2.311,7.607,3.495c3.295,1.168,5.481,2.283,6.563,3.354
	C245.013,71.128,245.274,72.635,244.69,74.614z"/>
<path fill="#0D5AA0" d="M301.211,63.197c-1.353,4.566-1.178,8.306,0.531,11.208c1.709,2.91,4.603,4.357,8.672,4.357
	s7.791-1.562,11.164-4.673c3.373-3.11,5.69-6.807,6.965-11.086c1.271-4.278,1.115-7.976-0.444-11.087
	c-1.568-3.11-4.367-4.671-8.394-4.671s-7.774,1.49-11.233,4.488C305.011,54.725,302.588,58.552,301.211,63.197L301.211,63.197z
	 M340.771,62.944c-2.291,7.722-6.525,14.031-12.715,18.931c-6.188,4.896-13.117,7.348-20.806,7.348
	c-7.679,0-13.203-2.449-16.567-7.348c-3.363-4.897-3.902-11.19-1.629-18.869c2.272-7.679,6.51-13.972,12.696-18.87
	c6.188-4.896,13.146-7.347,20.864-7.347c7.721,0,13.248,2.433,16.587,7.286C342.539,48.938,343.063,55.222,340.771,62.944z"/>
<path fill="#0D5AA0" d="M374.569,88.515c2.502-8.566,5.002-17.136,7.504-25.702c5.734-19.627-16.186-17.963-21.614,1.604
	c-2.5,8.063-4.991,16.115-7.494,24.178c-3.801-0.024-7.606-0.053-11.407-0.068c2.598-8.898,5.192-17.808,7.799-26.704
	c2.678-8.82,8.762-17.771,17.065-21.764c3.869-1.864,8.229-2.648,12.688-2.23c4.394,0.418,8.882,2.005,11.705,5.003
	c4.521,4.812,4.793,13.256,2.754,20.229c-2.483,8.517-4.969,17.029-7.45,25.537c-3.854,0-7.714,0-11.565,0"/>
<polygon fill="#0D5AA0" points="273.276,88.917 259.131,88.917 273.052,41.182 287.205,41.182 "/>
<path fill="#0D5AA0" d="M289.933,28.439c-0.515,1.855-1.654,3.47-3.406,4.838c-1.752,1.367-3.557,2.057-5.412,2.057
	c-1.857,0-3.277-0.688-4.264-2.057c-0.982-1.368-1.22-2.98-0.705-4.838c0.516-1.855,1.656-3.47,3.408-4.837s3.557-2.058,5.411-2.058
	s3.277,0.688,4.263,2.058C290.222,24.969,290.455,26.583,289.933,28.439z"/>
</svg>
