<?xml version="1.0" encoding="utf-8"?>
<!-- Generator: Adobe Illustrator 16.0.0, SVG Export Plug-In . SVG Version: 6.00 Build 0)  -->
<!DOCTYPE svg PUBLIC "-//W3C//DTD SVG 1.1//EN" "http://www.w3.org/Graphics/SVG/1.1/DTD/svg11.dtd">
<svg version="1.1" id="圖層_1" xmlns="http://www.w3.org/2000/svg" xmlns:xlink="http://www.w3.org/1999/xlink" x="0px" y="0px"
	 width="57.228px" height="47.515px" viewBox="0 0 57.228 47.515" enable-background="new 0 0 57.228 47.515" xml:space="preserve">
<path fill-rule="evenodd" clip-rule="evenodd" fill="#444444" d="M28.686,0.002c7.658,0,15.315-0.005,22.974,0.002
	c3.698,0.003,5.563,1.874,5.563,5.583c0.005,12.135,0.006,24.27,0,36.404c-0.002,3.61-1.886,5.517-5.465,5.519
	c-15.424,0.006-30.848,0.006-46.272,0c-3.588-0.002-5.479-1.902-5.481-5.501c-0.006-12.136-0.005-24.27-0.001-36.404
	c0.002-3.722,1.858-5.598,5.546-5.601C13.261-0.003,20.974,0.002,28.686,0.002z M4.892,19.403c0,7.963,0,15.754,0,23.543
	c15.891,0,31.668,0,47.443,0c0-7.905,0-15.696,0-23.543C36.482,19.403,20.744,19.403,4.892,19.403z M52.358,13.842
	c0-3.034,0-5.969,0-8.975c-15.866,0-31.643,0-47.49,0c0,3.025,0,5.96,0,8.975C20.696,13.842,36.435,13.842,52.358,13.842z"/>
<path fill-rule="evenodd" clip-rule="evenodd" fill="#444444" d="M23.284,33.334c2.74-2.637,5.411-5.206,8.207-7.896
	c3.887,4.398,7.829,8.858,11.951,13.523c-10.234,0-20.213,0-29.833,0c2.374-2.36,4.97-4.94,7.794-7.746"/>
<circle fill-rule="evenodd" clip-rule="evenodd" fill="#444444" cx="18.961" cy="25.682" r="3.075"/>
</svg>
