<?xml version="1.0" encoding="utf-8"?>
<!-- Generator: Adobe Illustrator 16.0.0, SVG Export Plug-In . SVG Version: 6.00 Build 0)  -->
<!DOCTYPE svg PUBLIC "-//W3C//DTD SVG 1.1//EN" "http://www.w3.org/Graphics/SVG/1.1/DTD/svg11.dtd">
<svg version="1.1" id="圖層_1" xmlns="http://www.w3.org/2000/svg" xmlns:xlink="http://www.w3.org/1999/xlink" x="0px" y="0px"
	 width="57.228px" height="47.516px" viewBox="0 0 57.228 47.516" enable-background="new 0 0 57.228 47.516" xml:space="preserve">
<path fill-rule="evenodd" clip-rule="evenodd" fill="#2173C9" d="M28.619,47.513c-7.658,0-15.316,0.004-22.975-0.001
	c-3.805-0.002-5.641-1.847-5.642-5.668c-0.004-12.079-0.004-24.16,0-36.241c0.002-3.718,1.86-5.597,5.549-5.599
	c15.369-0.005,30.739-0.004,46.11,0c3.696,0.001,5.559,1.875,5.561,5.586c0.005,12.135,0.005,24.27-0.001,36.403
	c-0.001,3.611-1.886,5.513-5.466,5.518C44.043,47.519,36.332,47.513,28.619,47.513z M52.392,19.461c-15.948,0-31.725,0-47.5,0
	c0,7.905,0,15.696,0,23.485c15.891,0,31.667,0,47.5,0C52.392,35.081,52.392,27.328,52.392,19.461z M52.392,4.893
	c-15.948,0-31.725,0-47.5,0c0,3.051,0,5.986,0,8.917c15.892,0,31.668,0,47.5,0C52.392,10.799,52.392,7.901,52.392,4.893z"/>
<g>
	<g>
		<path fill="#2173C9" stroke="#2173C9" stroke-width="0.5" stroke-miterlimit="10" d="M19.336,35.764
			c0,0.864,0.702,1.566,1.566,1.566c0.303,0,0.585-0.086,0.823-0.235l5.323,3.075c0,0.015-0.001,0.029-0.001,0.045
			c0,0.864,0.703,1.566,1.566,1.566s1.565-0.702,1.565-1.566c0-0.017,0-0.032-0.001-0.049l5.322-3.07
			c0.24,0.148,0.522,0.234,0.824,0.234c0.863,0,1.566-0.702,1.566-1.566c0-0.596-0.335-1.115-0.826-1.379l0.001-6.146
			c0.49-0.265,0.825-0.784,0.825-1.379c0-0.001,0-0.001,0-0.001s0-0.001,0-0.002c0-0.863-0.703-1.566-1.566-1.566
			c-0.303,0-0.585,0.086-0.825,0.235l-5.32-3.073c0-0.008,0.001-0.043,0.001-0.047c0-0.864-0.703-1.566-1.566-1.566
			s-1.566,0.702-1.566,1.566c0,0.004,0,0.039,0.001,0.047l-5.323,3.072c-0.239-0.148-0.521-0.234-0.823-0.234
			c-0.864,0-1.566,0.702-1.566,1.566v0.001c0,0,0,0.001,0,0.002c0,0.594,0.334,1.113,0.824,1.378l-0.001,6.147
			C19.67,34.65,19.336,35.17,19.336,35.764z M35.501,28.19c0.026,0.017,0.055,0.033,0.082,0.049l-0.001,6.146
			c-0.49,0.265-0.823,0.784-0.823,1.378c0,0.016,0.001,0.031,0.001,0.047l-5.323,3.072c-0.027-0.016-0.054-0.032-0.08-0.047V32.69
			c0.49-0.267,0.823-0.784,0.823-1.381c0-0.015,0-0.031-0.001-0.048L35.501,28.19z M27.772,23.748
			c0.243,0.156,0.532,0.247,0.842,0.247s0.599-0.091,0.842-0.246l5.304,3.063c0,0.015-0.001,0.029-0.001,0.045v0.001
			c0,0,0,0.001,0,0.002c0,0.016,0.001,0.029,0.001,0.045l-5.323,3.073c-0.239-0.148-0.521-0.233-0.822-0.233
			c-0.303,0-0.585,0.086-0.824,0.234l-5.322-3.074c0-0.016,0.001-0.029,0.001-0.045c0-0.001,0-0.001,0-0.001s0-0.001,0-0.002
			c0-0.016-0.001-0.031-0.001-0.047L27.772,23.748z M21.644,28.239c0.028-0.016,0.056-0.032,0.082-0.049l5.323,3.074
			c0,0.016-0.001,0.031-0.001,0.047c0,0.595,0.334,1.112,0.825,1.379v6.146c-0.028,0.016-0.057,0.032-0.083,0.049l-5.322-3.074
			c0-0.016,0.001-0.031,0.001-0.047c0-0.595-0.335-1.115-0.826-1.379L21.644,28.239z"/>
	</g>
</g>
</svg>
