<?xml version="1.0" encoding="utf-8"?>
<!-- Generator: Adobe Illustrator 16.0.0, SVG Export Plug-In . SVG Version: 6.00 Build 0)  -->
<!DOCTYPE svg PUBLIC "-//W3C//DTD SVG 1.1//EN" "http://www.w3.org/Graphics/SVG/1.1/DTD/svg11.dtd">
<svg version="1.1" id="圖層_1" xmlns="http://www.w3.org/2000/svg" xmlns:xlink="http://www.w3.org/1999/xlink" x="0px" y="0px"
	 width="35px" height="35px" viewBox="0 0 35 35" enable-background="new 0 0 35 35" xml:space="preserve">
<g>
	<path fill="#FF9E10" d="M16.557,6.632L15.74,5.814c-0.24-0.239-0.576-0.239-0.816,0l-5.091,5.043L7.768,8.841
		C7.527,8.6,7.191,8.6,6.95,8.841L6.134,9.657c-0.241,0.241-0.241,0.575,0,0.817l2.834,2.832c0.241,0.24,0.528,0.336,0.816,0.336
		c0.288,0,0.576-0.096,0.816-0.336l5.956-5.858C16.748,7.256,16.748,6.871,16.557,6.632z"/>
	<g>
		<path fill="#FFCE00" d="M28.277,12.107H18.238c-0.433,0-0.771-0.338-0.771-0.77V9.802c0-0.433,0.337-0.769,0.771-0.769h10.039
			c0.432,0,0.768,0.336,0.768,0.769v1.537C29.045,11.771,28.709,12.107,28.277,12.107z"/>
	</g>
	<g>
		<path fill="#FFCE00" d="M28.277,18.977H15.932c-0.432,0-0.768-0.336-0.768-0.77V16.67c0-0.432,0.336-0.77,0.768-0.77h12.345
			c0.433,0,0.769,0.338,0.769,0.77v1.537C29.045,18.641,28.709,18.977,28.277,18.977z"/>
	</g>
	<path fill="#D8BF55" d="M11.273,18.977H9.736c-0.432,0-0.769-0.336-0.769-0.77V16.67c0-0.432,0.337-0.77,0.769-0.77h1.537
		c0.433,0,0.768,0.338,0.768,0.77v1.537C12.09,18.641,11.706,18.977,11.273,18.977z"/>
	<path fill="#D8BF55" d="M11.273,25.845H9.736c-0.432,0-0.769-0.337-0.769-0.769v-1.538c0-0.433,0.337-0.769,0.769-0.769h1.537
		c0.433,0,0.768,0.336,0.768,0.769v1.538C12.09,25.508,11.706,25.845,11.273,25.845z"/>
	<g>
		<path fill="#FFCE00" d="M28.277,25.845H15.932c-0.432,0-0.768-0.337-0.768-0.769v-1.538c0-0.433,0.336-0.769,0.768-0.769h12.345
			c0.433,0,0.769,0.336,0.769,0.769v1.538C29.045,25.508,28.709,25.845,28.277,25.845z"/>
	</g>
</g>
</svg>
