<?xml version="1.0" encoding="utf-8"?>
<!-- Generator: Adobe Illustrator 16.0.0, SVG Export Plug-In . SVG Version: 6.00 Build 0)  -->
<!DOCTYPE svg PUBLIC "-//W3C//DTD SVG 1.1//EN" "http://www.w3.org/Graphics/SVG/1.1/DTD/svg11.dtd">
<svg version="1.1" id="圖層_1" xmlns="http://www.w3.org/2000/svg" xmlns:xlink="http://www.w3.org/1999/xlink" x="0px" y="0px"
	 width="57.228px" height="47.516px" viewBox="0 0 57.228 47.516" enable-background="new 0 0 57.228 47.516" xml:space="preserve">
<path fill-rule="evenodd" clip-rule="evenodd" fill="#444444" d="M28.636,0.001c7.659,0.001,15.316-0.003,22.975,0.002
	c3.727,0.003,5.611,1.856,5.612,5.534c0.006,12.134,0.006,24.269,0.001,36.403c-0.002,3.703-1.869,5.568-5.577,5.57
	c-15.37,0.004-30.739,0.004-46.11-0.001c-3.678-0.001-5.53-1.886-5.532-5.614C0,29.814,0.001,17.735,0.004,5.654
	c0.002-3.809,1.845-5.649,5.658-5.651C13.32-0.002,20.978,0.001,28.636,0.001z M4.835,13.809c15.948,0,31.726,0,47.5,0
	c0-3.051,0-5.985,0-8.917c-15.891,0-31.666,0-47.5,0C4.835,7.901,4.835,10.798,4.835,13.809z M52.337,43.004
	c0-7.963,0-15.753,0-23.544c-7.259,0-14.401,0-21.545,0c0,7.905,0,15.696,0,23.544C38.011,43.004,45.116,43.004,52.337,43.004z
	 M4.836,42.947c7.099,0,14.025,0,20.947,0c0-4.719,0-9.323,0-13.959c-7.044,0-13.968,0-20.947,0
	C4.836,33.691,4.836,38.263,4.836,42.947z M4.861,24.055c7.01,0,13.938,0,20.952,0c0-1.578,0-3.057,0-4.569
	c-7.045,0-14.01,0-20.952,0C4.861,21.066,4.861,22.508,4.861,24.055z"/>
<path fill-rule="evenodd" clip-rule="evenodd" fill="#444444" d="M46.752,29.414c1.124-0.803,2.107-1.503,3.259-2.324
	c0,2.827,0,5.415,0,8.232c-1.126-0.823-2.098-1.533-3.054-2.231c-0.138,0.103-0.28,0.154-0.288,0.222
	c-0.307,2.545-0.305,2.546-2.959,2.546c-3.068,0-6.139-0.059-9.205,0.025c-1.442,0.038-1.892-0.504-1.827-1.893
	c0.091-1.986,0.055-3.982,0.011-5.974c-0.022-1.03,0.393-1.478,1.417-1.474c3.66,0.017,7.322,0.043,10.981-0.007
	C47.245,26.507,46.331,28.204,46.752,29.414z"/>
</svg>
