<?xml version="1.0" encoding="utf-8"?>
<!-- Generator: Adobe Illustrator 16.0.0, SVG Export Plug-In . SVG Version: 6.00 Build 0)  -->
<!DOCTYPE svg PUBLIC "-//W3C//DTD SVG 1.1//EN" "http://www.w3.org/Graphics/SVG/1.1/DTD/svg11.dtd">
<svg version="1.1" id="圖層_1" xmlns="http://www.w3.org/2000/svg" xmlns:xlink="http://www.w3.org/1999/xlink" x="0px" y="0px"
	 width="38px" height="34px" viewBox="0 0 38 34" enable-background="new 0 0 38 34" xml:space="preserve">
<g transform="matrix(1 0 0 1 -605 -432 )">
	<path fill="#FFFFFF" d="M642.406,455.287c0.396,0.412,0.594,0.914,0.594,1.504v7.084c0,0.59-0.197,1.092-0.594,1.506
		c-0.396,0.412-0.877,0.619-1.441,0.619h-6.785c-0.566,0-1.047-0.207-1.443-0.619c-0.396-0.414-0.594-0.916-0.594-1.506v-7.084
		c0-0.59,0.198-1.092,0.594-1.504c0.396-0.414,0.877-0.621,1.443-0.621h2.035V450h-10.857v4.666h2.035
		c0.566,0,1.047,0.207,1.442,0.621c0.396,0.412,0.595,0.914,0.595,1.504v7.084c0,0.59-0.199,1.092-0.595,1.506
		c-0.396,0.412-0.876,0.619-1.442,0.619h-6.786c-0.565,0-1.046-0.207-1.442-0.619c-0.396-0.414-0.594-0.916-0.594-1.506v-7.084
		c0-0.59,0.198-1.092,0.594-1.504c0.396-0.414,0.876-0.621,1.442-0.621h2.036V450h-10.857v4.666h2.036
		c0.565,0,1.046,0.207,1.442,0.621c0.396,0.412,0.594,0.914,0.594,1.504v7.084c0,0.59-0.198,1.092-0.594,1.506
		c-0.396,0.412-0.876,0.619-1.442,0.619h-6.786c-0.565,0-1.046-0.207-1.442-0.619c-0.396-0.414-0.594-0.916-0.594-1.506v-7.084
		c0-0.59,0.198-1.092,0.594-1.504c0.396-0.414,0.876-0.621,1.442-0.621h2.036v-4.25c0-0.768,0.269-1.431,0.806-1.992
		s1.173-0.841,1.908-0.424h10.857v-4.667h-2.036c-0.565,0-1.046-0.207-1.442-0.62s-0.594-0.915-0.594-1.505v-7.083
		c0-0.59,0.198-1.092,0.594-1.505s0.876-0.62,1.442-0.62h6.786c0.566,0,1.047,0.207,1.442,0.62c0.396,0.414,0.595,0.915,0.595,1.505
		v7.083c0,0.59-0.199,1.092-0.595,1.505c-0.396,0.414-0.876,0.62-1.442,0.62h-2.035V448h10.857c0.734-0.417,1.371-0.136,1.908,0.424
		c0.537,0.561,0.807,1.225,0.807,1.992v4.25h2.035C641.529,454.666,642.01,454.873,642.406,455.287z"/>
</g>
</svg>
