<?xml version="1.0" encoding="utf-8"?>
<svg version="1.1" xmlns:xlink="http://www.w3.org/1999/xlink" width="38px" height="34px" xmlns="http://www.w3.org/2000/svg">
  <g transform="matrix(1 0 0 1 -605 -432 )">
    <path d="M 37.40625 23.286458333333332  C 37.802083333333336 23.69965277777777  38 24.20138888888889  38 24.791666666666668  L 38 31.875  C 38 32.46527777777778  37.802083333333336 32.967013888888886  37.40625 33.380208333333336  C 37.01041666666667 33.79340277777778  36.529761904761905 34  35.964285714285715 34  L 29.17857142857143 34  C 28.61309523809524 34  28.132440476190478 33.79340277777778  27.736607142857142 33.380208333333336  C 27.34077380952381 32.967013888888886  27.142857142857142 32.46527777777778  27.142857142857142 31.875  L 27.142857142857142 24.791666666666668  C 27.142857142857142 24.20138888888889  27.34077380952381 23.69965277777777  27.736607142857142 23.286458333333332  C 28.132440476190478 22.87326388888889  28.61309523809524 22.666666666666668  29.17857142857143 22.666666666666668  L 31.21428571428571 22.666666666666668  L 31.21428571428571 18  L 20.357142857142858 18  L 20.357142857142858 22.666666666666668  L 22.392857142857142 22.666666666666668  C 22.958333333333336 22.666666666666668  23.4389880952381 22.87326388888889  23.83482142857143 23.286458333333332  C 24.230654761904763 23.69965277777777  24.42857142857143 24.20138888888889  24.42857142857143 24.791666666666668  L 24.42857142857143 31.875  C 24.42857142857143 32.46527777777778  24.230654761904763 32.967013888888886  23.83482142857143 33.380208333333336  C 23.4389880952381 33.79340277777778  22.958333333333336 34  22.392857142857142 34  L 15.607142857142856 34  C 15.041666666666668 34  14.561011904761905 33.79340277777778  14.165178571428571 33.380208333333336  C 13.769345238095239 32.967013888888886  13.571428571428571 32.46527777777778  13.571428571428571 31.875  L 13.571428571428571 24.791666666666668  C 13.571428571428571 24.20138888888889  13.769345238095239 23.69965277777777  14.165178571428571 23.286458333333332  C 14.561011904761905 22.87326388888889  15.041666666666668 22.666666666666668  15.607142857142856 22.666666666666668  L 17.642857142857142 22.666666666666668  L 17.642857142857142 18  L 6.785714285714286 18  L 6.785714285714286 22.666666666666668  L 8.821428571428571 22.666666666666668  C 9.386904761904763 22.666666666666668  9.867559523809526 22.87326388888889  10.263392857142856 23.286458333333332  C 10.65922619047619 23.69965277777777  10.857142857142856 24.20138888888889  10.857142857142856 24.791666666666668  L 10.857142857142856 31.875  C 10.857142857142856 32.46527777777778  10.65922619047619 32.967013888888886  10.263392857142856 33.380208333333336  C 9.867559523809526 33.79340277777778  9.386904761904763 34  8.821428571428571 34  L 2.0357142857142856 34  C 1.4702380952380956 34  0.9895833333333334 33.79340277777778  0.59375 33.380208333333336  C 0.19791666666666666 32.967013888888886  0 32.46527777777778  0 31.875  L 0 24.791666666666668  C 0 24.20138888888889  0.19791666666666666 23.69965277777777  0.59375 23.286458333333332  C 0.9895833333333334 22.87326388888889  1.4702380952380956 22.666666666666668  2.0357142857142856 22.666666666666668  L 4.071428571428571 22.666666666666668  L 4.071428571428571 18.416666666666668  C 4.071428571428571 17.64930555555555  4.340029761904762 16.985243055555554  4.877232142857142 16.424479166666664  C 5.414434523809524 15.863715277777775  6.050595238095239 15.583333333333334  6.785714285714286 16  L 17.642857142857142 16  L 17.642857142857142 11.333333333333334  L 15.607142857142856 11.333333333333334  C 15.041666666666668 11.333333333333334  14.561011904761905 11.126736111111107  14.165178571428571 10.713541666666666  C 13.769345238095239 10.300347222222221  13.571428571428571 9.798611111111107  13.571428571428571 9.208333333333334  L 13.571428571428571 2.125  C 13.571428571428571 1.5347222222222205  13.769345238095239 1.0329861111111065  14.165178571428571 0.6197916666666654  C 14.561011904761905 0.20659722222222054  15.041666666666668 0  15.607142857142856 0  L 22.392857142857142 0  C 22.958333333333336 0  23.4389880952381 0.20659722222222054  23.83482142857143 0.6197916666666654  C 24.230654761904763 1.0329861111111065  24.42857142857143 1.5347222222222205  24.42857142857143 2.125  L 24.42857142857143 9.208333333333334  C 24.42857142857143 9.798611111111107  24.230654761904763 10.300347222222221  23.83482142857143 10.713541666666666  C 23.4389880952381 11.126736111111107  22.958333333333336 11.333333333333334  22.392857142857142 11.333333333333334  L 20.357142857142858 11.333333333333334  L 20.357142857142858 16  L 31.21428571428571 16  C 31.949404761904763 15.583333333333334  32.58556547619048 15.863715277777775  33.122767857142854 16.424479166666664  C 33.65997023809524 16.985243055555554  33.92857142857143 17.64930555555555  33.92857142857143 18.416666666666668  L 33.92857142857143 22.666666666666668  L 35.964285714285715 22.666666666666668  C 36.529761904761905 22.666666666666668  37.01041666666667 22.87326388888889  37.40625 23.286458333333332  Z " fill-rule="nonzero" fill="#797979" stroke="none" transform="matrix(1 0 0 1 605 432 )" />
  </g>
</svg>