<?xml version="1.0" encoding="utf-8"?>
<!-- Generator: Adobe Illustrator 16.0.0, SVG Export Plug-In . SVG Version: 6.00 Build 0)  -->
<!DOCTYPE svg PUBLIC "-//W3C//DTD SVG 1.1//EN" "http://www.w3.org/Graphics/SVG/1.1/DTD/svg11.dtd">
<svg version="1.1" id="圖層_1" xmlns="http://www.w3.org/2000/svg" xmlns:xlink="http://www.w3.org/1999/xlink" x="0px" y="0px"
	 width="35px" height="35px" viewBox="0 0 35 35" enable-background="new 0 0 35 35" xml:space="preserve">
<g>
	<polygon fill="#BBD0F5" points="24.695,23.885 27.154,23.885 27.154,15.279 19.164,15.279 19.164,9.746 16.705,9.746 
		16.705,15.279 8.713,15.279 8.713,23.885 11.172,23.885 11.172,17.738 16.705,17.738 16.705,23.885 19.164,23.885 19.164,17.738 
		24.695,17.738 	"/>
	<path fill="#3F51B5" d="M12.851,27.048c0,0.511-0.412,0.922-0.922,0.922H7.63c-0.51,0-0.922-0.411-0.922-0.922v-4.299
		c0-0.51,0.412-0.922,0.922-0.922h4.299c0.51,0,0.922,0.412,0.922,0.922V27.048z"/>
	<path fill="#3F51B5" d="M21.006,27.048c0,0.511-0.412,0.922-0.922,0.922h-4.299c-0.51,0-0.922-0.411-0.922-0.922v-4.299
		c0-0.51,0.412-0.922,0.922-0.922h4.299c0.51,0,0.922,0.412,0.922,0.922V27.048z"/>
	<path fill="#3F51B5" d="M29.049,27.048c0,0.511-0.412,0.922-0.922,0.922h-4.299c-0.51,0-0.922-0.411-0.922-0.922v-4.299
		c0-0.51,0.412-0.922,0.922-0.922h4.299c0.51,0,0.922,0.412,0.922,0.922V27.048z"/>
	<path fill="#3F51B5" d="M22.08,10.667c0,0.51-0.412,0.922-0.922,0.922h-6.447c-0.51,0-0.922-0.412-0.922-0.922V6.368
		c0-0.509,0.412-0.923,0.922-0.923h6.447c0.51,0,0.922,0.414,0.922,0.923V10.667z"/>
</g>
</svg>
