<?xml version="1.0" encoding="utf-8"?>
<svg version="1.1" xmlns:xlink="http://www.w3.org/1999/xlink" width="24px" height="19px" xmlns="http://www.w3.org/2000/svg">
  <g transform="matrix(1 0 0 1 -1591 -265 )">
    <path d="M 13.2589285714286 2.42725337118524  C 12.0714285714286 1.95978235154956  10.7946428571429 1.72604684173172  9.42857142857143 1.72604684173172  C 8.0625 1.72604684173172  6.78571428571429 1.95978235154956  5.59821428571429 2.42725337118524  C 4.41071428571429 2.89472439082091  3.46651785714286 3.52850721551928  2.765625 4.32860184528034  C 2.06473214285714 5.1286964750414  1.71428571428571 5.98722498225692  1.71428571428571 6.9041873669269  C 1.71428571428571 7.64135320558316  1.95089285714286 8.35154956233735  2.42410714285714 9.0347764371895  C 2.89732142857143 9.71800331204164  3.5625 10.3113319138869  4.41964285714286 10.8147622427253  L 5.71875 11.569907735983  L 5.25 12.7026259758694  C 5.55357142857143 12.5228294298557  5.83035714285714 12.3475277974923  6.08035714285714 12.1767210787793  L 6.66964285714286 11.7586941092974  L 7.37946428571428 11.8935415188077  C 8.07589285714286 12.0193991010173  8.75892857142857 12.0823278921221  9.42857142857143 12.0823278921221  C 10.7946428571429 12.0823278921221  12.0714285714286 11.8485923823042  13.2589285714286 11.3811213626686  C 14.4464285714286 10.9136503430329  15.390625 10.2798675183345  16.0915178571429 9.47977288857346  C 16.7924107142857 8.67967825881239  17.1428571428571 7.82114975159688  17.1428571428571 6.9041873669269  C 17.1428571428571 5.98722498225692  16.7924107142857 5.1286964750414  16.0915178571429 4.32860184528034  C 15.390625 3.52850721551928  14.4464285714286 2.89472439082091  13.2589285714286 2.42725337118524  Z M 4.69419642857143 0.923704755145494  C 6.14508928571429 0.307901585048497  7.72321428571429 0  9.42857142857143 0  C 11.1339285714286 0  12.7120535714286 0.307901585048497  14.1629464285714 0.923704755145494  C 15.6138392857143 1.53950792524249  16.7589285714286 2.37780932103146  17.5982142857143 3.43860894251242  C 18.4375 4.49940856399337  18.8571428571429 5.65460137213153  18.8571428571429 6.9041873669269  C 18.8571428571429 8.15377336172226  18.4375 9.30896616986042  17.5982142857143 10.3697657913414  C 16.7589285714286 11.4305654128223  15.6138392857143 12.2688668086113  14.1629464285714 12.8846699787083  C 12.7120535714286 13.5004731488053  11.1339285714286 13.8083747338538  9.42857142857143 13.8083747338538  C 8.66071428571429 13.8083747338538  7.875 13.7364561154483  7.07142857142857 13.5926188786373  C 5.96428571428572 14.3837236810977  4.72321428571429 14.9590726283416  3.34821428571429 15.3186657203691  C 3.02678571428571 15.3995741660752  2.64285714285714 15.4714927844807  2.19642857142857 15.5344215755855  L 2.15625 15.5344215755855  C 2.05803571428571 15.5344215755855  1.96651785714286 15.4984622663828  1.88169642857143 15.4265436479773  C 1.796875 15.3546250295718  1.74553571428571 15.2602318429146  1.72767857142857 15.1433640880057  C 1.71875 15.1163946061036  1.71428571428571 15.0871776673764  1.71428571428571 15.055713271824  C 1.71428571428571 15.0242488762716  1.71651785714286 14.9950319375444  1.72098214285714 14.9680624556423  C 1.72544642857143 14.9410929737402  1.734375 14.9141234918382  1.74776785714286 14.8871540099361  L 1.78125 14.819730305181  C 1.78125 14.819730305181  1.796875 14.7950082801041  1.828125 14.7455642299503  C 1.859375 14.6961201797965  1.87723214285714 14.6736456115448  1.88169642857143 14.6781405251952  C 1.88616071428571 14.6826354388455  1.90625 14.6601608705938  1.94196428571429 14.61071682044  C 1.97767857142857 14.5612727702863  1.99553571428571 14.5410456588597  1.99553571428571 14.5500354861604  C 2.04017857142857 14.4960965223563  2.14285714285714 14.3837236810977  2.30357142857143 14.2129169623847  C 2.46428571428571 14.0421102436716  2.58035714285714 13.9095102909865  2.65178571428571 13.8151171043293  C 2.72321428571429 13.7207239176721  2.82366071428571 13.5903714218122  2.953125 13.4240596167495  C 3.08258928571429 13.2577478116868  3.19419642857143 13.0846936361486  3.28794642857143 12.9048970901348  C 3.38169642857143 12.7251005441211  3.47321428571429 12.527324343506  3.5625 12.3115684882896  C 2.45535714285714 11.6643009226402  1.58482142857143 10.8687012065295  0.950892857142857 9.92476933995742  C 0.316964285714286 8.98083747338538  0 7.97397681570854  0 6.9041873669269  C 0 5.65460137213153  0.419642857142857 4.49940856399337  1.25892857142857 3.43860894251242  C 2.09821428571429 2.37780932103146  3.24330357142857 1.53950792524249  4.69419642857143 0.923704755145494  Z M 23.0491071428571 13.3836053938964  C 22.4151785714286 14.3230423468181  21.5446428571429 15.1163946061036  20.4375 15.763662171753  C 20.5267857142857 15.9794180269695  20.6183035714286 16.1771942275846  20.7120535714286 16.3569907735983  C 20.8058035714286 16.536787319612  20.9174107142857 16.7098414951502  21.046875 16.8761533002129  C 21.1763392857143 17.0424651052756  21.2767857142857 17.1728176011356  21.3482142857143 17.2672107877928  C 21.4196428571429 17.36160397445  21.5357142857143 17.4942039271351  21.6964285714286 17.6650106458481  C 21.8571428571429 17.8358173645612  21.9598214285714 17.9481902058197  22.0044642857143 18.0021291696238  C 22.0133928571429 18.0111189969245  22.03125 18.0313461083511  22.0580357142857 18.0628105039035  C 22.0848214285714 18.0942748994559  22.1049107142857 18.1167494677076  22.1183035714286 18.1302342086586  C 22.1316964285714 18.1437189496097  22.1495535714286 18.1661935178614  22.171875 18.1976579134138  C 22.1941964285714 18.2291223089662  22.2098214285714 18.2538443340431  22.21875 18.2718239886444  L 22.2522321428571 18.3392476933996  C 22.2522321428571 18.3392476933996  22.2611607142857 18.3662171753016  22.2790178571429 18.4201561391058  C 22.296875 18.4740951029099  22.2991071428571 18.5033120416371  22.2857142857143 18.5078069552874  C 22.2723214285714 18.5123018689378  22.2678571428571 18.541518807665  22.2723214285714 18.5954577714691  C 22.2455357142857 18.7213153536787  22.1875 18.8202034539863  22.0982142857143 18.8921220723918  C 22.0089285714286 18.9640406907973  21.9107142857143 18.9955050863497  21.8035714285714 18.986515259049  C 21.3571428571429 18.9235864679442  20.9732142857143 18.8516678495387  20.6517857142857 18.7707594038325  C 19.2767857142857 18.4111663118051  18.0357142857143 17.8358173645612  16.9285714285714 17.0447125621008  C 16.125 17.1885497989118  15.3392857142857 17.2604684173172  14.5714285714286 17.2604684173172  C 12.1517857142857 17.2604684173172  10.0446428571429 16.667139815472  8.25 15.4804826117814  C 8.76785714285714 15.5164419209842  9.16071428571428 15.5344215755855  9.42857142857143 15.5344215755855  C 10.8660714285714 15.5344215755855  12.2455357142857 15.3321504613201  13.5669642857143 14.9276082327892  C 14.8883928571429 14.5230660042583  16.0669642857143 13.9432221433641  17.1026785714286 13.1880766501065  C 18.21875 12.3610125384433  19.0758928571429 11.4080908445706  19.6741071428571 10.3293115684883  C 20.2723214285714 9.25053229240596  20.5714285714286 8.10882422521883  20.5714285714286 6.9041873669269  C 20.5714285714286 6.21197066477407  20.46875 5.52874378992193  20.2633928571429 4.85450674237048  C 21.4151785714286 5.49278448071918  22.3258928571429 6.29287911048024  22.9955357142857 7.25479063165366  C 23.6651785714286 8.21670215282706  24 9.25053229240596  24 10.3562810503903  C 24 11.4350603264727  23.6830357142857 12.4441684409747  23.0491071428571 13.3836053938964  Z " fill-rule="nonzero" fill="#00b7ff" stroke="none" transform="matrix(1 0 0 1 1591 265 )" />
  </g>
</svg>