<?xml version="1.0" encoding="utf-8"?>
<!-- Generator: Adobe Illustrator 16.0.0, SVG Export Plug-In . SVG Version: 6.00 Build 0)  -->
<!DOCTYPE svg PUBLIC "-//W3C//DTD SVG 1.1//EN" "http://www.w3.org/Graphics/SVG/1.1/DTD/svg11.dtd">
<svg version="1.1" id="圖層_1" xmlns="http://www.w3.org/2000/svg" xmlns:xlink="http://www.w3.org/1999/xlink" x="0px" y="0px"
	 width="394.787px" height="89.152px" viewBox="0 0 394.787 89.152" enable-background="new 0 0 394.787 89.152"
	 xml:space="preserve">
<linearGradient id="SVGID_1_" gradientUnits="userSpaceOnUse" x1="23.0786" y1="122.3855" x2="23.0786" y2="211.6755" gradientTransform="matrix(1 0 0 -1 174.3149 211.6069)">
	<stop  offset="0" style="stop-color:#FFFFFF"/>
	<stop  offset="1" style="stop-color:#D0D0D0"/>
</linearGradient>
<path fill="url(#SVGID_1_)" d="M202.359,88.917h-14.146l13.928-47.735h14.146L202.359,88.917z M154.744,41.181
	c-4.271,0-8.541,0-12.803,0c-5.641,13.361-4.551,28.613,2.938,41.024c1.342,2.23,3.494,3.869,6.006,4.575
	c2.51,0.706,5.193,0.437,7.504-0.768c17.563-9.116,30.207-25.527,34.549-44.833c-4.279,0-8.551,0-12.83,0
	c-2.439,12.446-9.908,23.34-20.646,30.096c-0.977,0.618-2.18,0.759-3.277,0.393s-1.969-1.212-2.369-2.292
	C150.361,60.233,150.693,50.089,154.744,41.181z M114.732-0.07l-5.178,17.344h-42.76c-10.379,0-19.609,6.634-22.93,16.49
	L25.24,89.083H0l18.815-57.297C25.066,12.751,42.828-0.07,62.822-0.07H114.732L114.732-0.07z M101.293,42.332l-13.736,46.75h-25.98
	l14.031-46.75H101.293z M138.516,21.545l-19.705,67.537H92.621l20.115-67.537H138.516L138.516,21.545z M72.164,42.332l-3.521,11.417
	c-1.07,3.442-4.252,5.796-7.852,5.796H40.057l3.436-11.364c1.063-3.495,4.277-5.875,7.922-5.856
	C59.369,42.385,72.227,42.393,72.164,42.332z M108.326,21.537l-3.521,11.364c-1.07,3.442-4.254,5.796-7.854,5.796H76.217
	l3.436-11.364c1.063-3.495,4.277-5.875,7.922-5.857C95.531,21.528,108.395,21.597,108.326,21.537z M146.152-0.07l-3.521,11.436
	c-1.072,3.451-4.254,5.908-7.854,5.908h-20.734l3.443-11.47c1.055-3.495,4.277-5.865,7.922-5.865h20.742V-0.07H146.152z
	 M219.014,28.439c-0.514,1.856-1.654,3.47-3.406,4.838c-1.752,1.367-3.557,2.057-5.412,2.057c-1.857,0-3.277-0.688-4.264-2.057
	c-0.984-1.368-1.221-2.98-0.707-4.838c0.516-1.855,1.656-3.469,3.408-4.837c1.752-1.367,3.557-2.057,5.412-2.057
	c1.857,0,3.277,0.688,4.264,2.057C219.301,24.97,219.537,26.583,219.014,28.439z M244.691,74.614
	c-0.533,1.813-1.648,3.232-3.34,4.263c-1.689,1.002-3.781,1.499-6.273,1.499c-6.711,0-9.238-2.807-7.602-8.42
	c-3.504,0-7.008,0-10.512,0c-0.959,3.286-0.967,6.171-0.018,8.664c0.977,2.492,2.859,4.462,5.648,5.899
	c2.797,1.42,6.152,2.126,10.066,2.126c5.639,0,10.482-1.246,14.537-3.738c4.061-2.52,6.736-5.971,8.025-10.371
	c1.16-3.957,0.758-7.27-1.193-9.918c-1.951-2.65-5.646-4.881-11.086-6.678c-2.955-0.976-5.1-2.021-6.449-3.146
	c-1.324-1.115-1.752-2.501-1.266-4.157c0.516-1.769,1.641-3.188,3.373-4.262c1.744-1.098,3.889-1.639,6.451-1.639
	c2.658,0,4.523,0.653,5.611,1.951c1.09,1.281,1.299,3.086,0.619,5.413c3.496,0,6.99,0,10.477,0c0.891-3.051,0.898-5.777,0.008-8.176
	c-0.861-2.396-2.518-4.253-4.977-5.552c-2.457-1.324-5.498-1.987-9.133-1.987c-3.609,0-7.051,0.603-10.313,1.813
	c-3.24,1.211-5.961,2.901-8.146,5.063c-2.162,2.145-3.645,4.584-4.445,7.339c-1.543,5.29,0.121,9.491,4.984,12.611
	c1.787,1.142,4.322,2.31,7.607,3.495c3.295,1.168,5.482,2.283,6.564,3.354C245.012,71.128,245.275,72.635,244.691,74.614z
	 M301.211,63.197c-1.352,4.566-1.178,8.306,0.531,11.208c1.709,2.91,4.602,4.357,8.672,4.357s7.791-1.561,11.164-4.672
	s5.691-6.807,6.965-11.086c1.271-4.279,1.115-7.976-0.445-11.087c-1.568-3.111-4.367-4.671-8.393-4.671
	c-4.027,0-7.775,1.49-11.234,4.488C305.01,54.725,302.588,58.552,301.211,63.197L301.211,63.197z M340.77,62.944
	c-2.291,7.722-6.525,14.031-12.715,18.931c-6.188,4.896-13.117,7.347-20.805,7.347c-7.678,0-13.203-2.449-16.568-7.347
	c-3.363-4.898-3.902-11.191-1.629-18.869c2.273-7.679,6.51-13.972,12.697-18.87c6.188-4.896,13.145-7.347,20.865-7.347
	s13.248,2.432,16.586,7.286C342.539,48.938,343.063,55.222,340.77,62.944z M374.57,88.515c2.502-8.566,5.002-17.135,7.504-25.702
	c5.734-19.627-16.186-17.963-21.615,1.604c-2.5,8.063-4.992,16.115-7.494,24.178c-3.801-0.025-7.607-0.053-11.408-0.069
	c2.598-8.898,5.193-17.807,7.799-26.704c2.678-8.82,8.762-17.771,17.066-21.764c3.869-1.864,8.229-2.648,12.689-2.23
	c4.393,0.418,8.881,2.005,11.705,5.003c4.521,4.811,4.793,13.256,2.754,20.229c-2.484,8.517-4.969,17.03-7.451,25.537
	c-3.854,0-7.713,0-11.566,0 M273.277,88.917h-14.146l13.92-47.735h14.154L273.277,88.917z M289.932,28.439
	c-0.514,1.856-1.654,3.47-3.406,4.838c-1.752,1.367-3.557,2.057-5.412,2.057c-1.857,0-3.277-0.688-4.264-2.057
	c-0.982-1.368-1.219-2.98-0.705-4.838c0.516-1.855,1.656-3.469,3.408-4.837c1.752-1.367,3.557-2.057,5.412-2.057
	s3.277,0.688,4.262,2.057C290.221,24.97,290.455,26.583,289.932,28.439z"/>
<path fill="#2173C9" d="M213.859-65.924h-14.146l13.928-47.735h14.146L213.859-65.924z M166.244-113.659c-4.271,0-8.541,0-12.803,0
	c-5.641,13.361-4.551,28.613,2.938,41.024c1.342,2.23,3.494,3.869,6.006,4.575c2.51,0.706,5.193,0.437,7.504-0.768
	c17.563-9.116,30.207-25.527,34.549-44.833c-4.279,0-8.551,0-12.83,0c-2.439,12.446-9.908,23.34-20.646,30.096
	c-0.977,0.618-2.18,0.759-3.277,0.393s-1.969-1.212-2.369-2.292C161.861-94.608,162.193-104.752,166.244-113.659z M126.232-154.91
	l-5.178,17.344h-42.76c-10.379,0-19.609,6.634-22.93,16.49L36.74-65.758H11.5l18.815-57.297
	c6.251-19.035,24.013-31.855,44.007-31.855H126.232L126.232-154.91z M112.793-112.509l-13.736,46.75h-25.98l14.031-46.75H112.793z
	 M150.016-133.296l-19.705,67.537h-26.189l20.115-67.537H150.016L150.016-133.296z M83.664-112.509l-3.521,11.417
	c-1.07,3.442-4.252,5.796-7.852,5.796H51.557l3.436-11.364c1.063-3.495,4.277-5.875,7.922-5.856
	C70.869-112.456,83.727-112.448,83.664-112.509z M119.826-133.304l-3.521,11.364c-1.07,3.442-4.254,5.796-7.854,5.796H87.717
	l3.436-11.364c1.063-3.495,4.277-5.875,7.922-5.857C107.031-133.313,119.895-133.243,119.826-133.304z M157.652-154.91
	l-3.521,11.436c-1.072,3.451-4.254,5.908-7.854,5.908h-20.734l3.443-11.47c1.055-3.495,4.277-5.865,7.922-5.865h20.742v-0.009
	H157.652z M230.514-126.402c-0.514,1.856-1.654,3.47-3.406,4.838c-1.752,1.367-3.557,2.057-5.412,2.057
	c-1.857,0-3.277-0.688-4.264-2.057c-0.984-1.368-1.221-2.98-0.707-4.838c0.516-1.855,1.656-3.469,3.408-4.837
	c1.752-1.367,3.557-2.057,5.412-2.057c1.857,0,3.277,0.688,4.264,2.057C230.801-129.87,231.037-128.258,230.514-126.402z
	 M256.191-80.227c-0.533,1.813-1.648,3.232-3.34,4.263c-1.689,1.002-3.781,1.499-6.273,1.499c-6.711,0-9.238-2.807-7.602-8.42
	c-3.504,0-7.008,0-10.512,0c-0.959,3.286-0.967,6.171-0.018,8.664c0.977,2.492,2.859,4.462,5.648,5.899
	c2.797,1.42,6.152,2.126,10.066,2.126c5.639,0,10.482-1.246,14.537-3.738c4.061-2.52,6.736-5.971,8.025-10.371
	c1.16-3.957,0.758-7.27-1.193-9.918c-1.951-2.65-5.646-4.881-11.086-6.678c-2.955-0.976-5.1-2.021-6.449-3.146
	c-1.324-1.115-1.752-2.501-1.266-4.157c0.516-1.769,1.641-3.188,3.373-4.262c1.744-1.098,3.889-1.639,6.451-1.639
	c2.658,0,4.523,0.653,5.611,1.951c1.09,1.281,1.299,3.086,0.619,5.413c3.496,0,6.99,0,10.477,0c0.891-3.051,0.898-5.777,0.008-8.176
	c-0.861-2.396-2.518-4.253-4.977-5.552c-2.457-1.324-5.498-1.987-9.133-1.987c-3.609,0-7.051,0.603-10.313,1.813
	c-3.24,1.211-5.961,2.901-8.146,5.063c-2.162,2.145-3.645,4.584-4.445,7.339c-1.543,5.29,0.121,9.491,4.984,12.611
	c1.787,1.142,4.322,2.31,7.607,3.495c3.295,1.168,5.482,2.283,6.564,3.354C256.512-83.713,256.775-82.205,256.191-80.227z
	 M312.711-91.644c-1.352,4.566-1.178,8.306,0.531,11.208c1.709,2.91,4.602,4.357,8.672,4.357s7.791-1.561,11.164-4.672
	s5.691-6.807,6.965-11.086c1.271-4.279,1.115-7.976-0.445-11.087c-1.568-3.111-4.367-4.671-8.393-4.671
	c-4.027,0-7.775,1.49-11.234,4.488C316.51-100.115,314.088-96.289,312.711-91.644L312.711-91.644z M352.27-91.897
	c-2.291,7.722-6.525,14.031-12.715,18.931c-6.188,4.896-13.117,7.347-20.805,7.347c-7.678,0-13.203-2.449-16.568-7.347
	c-3.363-4.898-3.902-11.191-1.629-18.869c2.273-7.679,6.51-13.972,12.697-18.87c6.188-4.896,13.145-7.347,20.865-7.347
	s13.248,2.432,16.586,7.286C354.039-105.903,354.563-99.618,352.27-91.897z M386.07-66.325c2.502-8.566,5.002-17.135,7.504-25.702
	c5.734-19.627-16.186-17.963-21.615,1.604c-2.5,8.063-4.992,16.115-7.494,24.178c-3.801-0.025-7.607-0.053-11.408-0.069
	c2.598-8.898,5.193-17.807,7.799-26.704c2.678-8.82,8.762-17.771,17.066-21.764c3.869-1.864,8.229-2.648,12.689-2.23
	c4.393,0.418,8.881,2.005,11.705,5.003c4.521,4.811,4.793,13.256,2.754,20.229c-2.484,8.517-4.969,17.03-7.451,25.537
	c-3.854,0-7.713,0-11.566,0 M284.777-65.924h-14.146l13.92-47.735h14.154L284.777-65.924z M301.432-126.402
	c-0.514,1.856-1.654,3.47-3.406,4.838c-1.752,1.367-3.557,2.057-5.412,2.057c-1.857,0-3.277-0.688-4.264-2.057
	c-0.982-1.368-1.219-2.98-0.705-4.838c0.516-1.855,1.656-3.469,3.408-4.837c1.752-1.367,3.557-2.057,5.412-2.057
	s3.277,0.688,4.262,2.057C301.721-129.87,301.955-128.258,301.432-126.402z"/>
<image overflow="visible" width="1906" height="93" xlink:href="../../../../2021-12-21 23_53_37-fii-vision-logo.svg_ @ 200% (RGB_預視).jpg"  transform="matrix(0.75 0 0 0.75 -573 190.8904)">
</image>
</svg>
