<?xml version="1.0" encoding="utf-8"?>
<svg version="1.1" xmlns:xlink="http://www.w3.org/1999/xlink" width="36px" height="42px" xmlns="http://www.w3.org/2000/svg">
  <g transform="matrix(1 0 0 1 -32 -22 )">
    <path d="M 33.9219642857143 10.5326136363636  C 34.351875 10.2788636363636  34.3542857142857 9.64011363636364  33.9259821428571 9.38238636363636  L 20.5883035714286 1.35784090909091  C 18.9883928571429 0.395340909090909  17.0108035714286 0.395340909090909  15.4108928571429 1.35784090909091  L 2.07401785714286 9.38238636363636  C 1.64651785714286 9.63931818181818  1.64892857142857 10.2788636363636  2.07883928571429 10.5326136363636  L 18 19.9301136363636  L 33.9219642857143 10.5326136363636  Z M 36 13.5092045454545  C 36 12.9993181818182  35.4664285714286 12.6795454545455  35.038125 12.9325  L 19 22.2297727272727  L 19 40.0336363636364  C 19.2857142857143 41.0581818181818  20.3616964285714 41.6969318181818  21.2183035714286 41.1814772727273  L 33.4454464285714 33.8251136363636  C 35.026875 32.87375  36 31.1253409090909  36 29.2353409090909  L 36 13.5092045454545  Z M 0.961875 12.9325  C 0.533571428571428 12.6795454545455  0 12.9993181818182  0 13.5092045454545  L 0 29.2353409090909  C 0 31.1261363636364  0.973125 32.87375  2.55455357142857 33.8251136363636  L 14.7816964285714 41.1806818181818  C 15.6391071428571 41.6961363636364  16.7142857142857 41.0581818181818  17 40.0328409090909  L 17 22.2297727272727  L 0.961875 12.9325  Z " fill-rule="nonzero" fill="#ffffff" stroke="none" fill-opacity="0.996078431372549" transform="matrix(1 0 0 1 32 22 )" />
  </g>
</svg>