<?xml version="1.0" encoding="utf-8"?>
<!-- Generator: Adobe Illustrator 16.0.0, SVG Export Plug-In . SVG Version: 6.00 Build 0)  -->
<!DOCTYPE svg PUBLIC "-//W3C//DTD SVG 1.1//EN" "http://www.w3.org/Graphics/SVG/1.1/DTD/svg11.dtd">
<svg version="1.1" id="圖層_1" xmlns="http://www.w3.org/2000/svg" xmlns:xlink="http://www.w3.org/1999/xlink" x="0px" y="0px"
	 width="36px" height="15.324px" viewBox="577.29 403.03 36 15.324" enable-background="new 577.29 403.03 36 15.324"
	 xml:space="preserve">
<path id="Arrow_59_" fill="#7B7B7B" stroke="#7B7B7B" stroke-width="2" stroke-miterlimit="10" d="M599.763,415.226
	c0.055,0.619,0.347,1.156,0.782,1.537c0.455,0.408,1.074,0.633,1.727,0.585l7.915-0.605c1.23-0.095,2.155-1.136,2.101-2.366
	l-0.34-7.928c-0.055-1.271-1.136-2.271-2.407-2.237c-1.271,0.041-2.264,1.102-2.21,2.373l0.109,2.543
	c-8.432-7.384-21.221-6.664-28.578,1.625c-0.843,0.945-0.741,2.407,0.217,3.257c0.959,0.85,2.421,0.775,3.257-0.177
	c5.671-6.398,15.537-6.956,22.058-1.278l-2.536,0.197C600.594,412.847,599.655,413.955,599.763,415.226z"/>
</svg>
