<?xml version="1.0" encoding="utf-8"?>
<!-- Generator: Adobe Illustrator 16.0.0, SVG Export Plug-In . SVG Version: 6.00 Build 0)  -->
<!DOCTYPE svg PUBLIC "-//W3C//DTD SVG 1.1//EN" "http://www.w3.org/Graphics/SVG/1.1/DTD/svg11.dtd">
<svg version="1.1" id="圖層_1" xmlns="http://www.w3.org/2000/svg" xmlns:xlink="http://www.w3.org/1999/xlink" x="0px" y="0px"
	 width="57.228px" height="47.515px" viewBox="0 0 57.228 47.515" enable-background="new 0 0 57.228 47.515" xml:space="preserve">
<path fill-rule="evenodd" clip-rule="evenodd" fill="#444444" d="M28.528,47.512c-7.657,0-15.315,0.005-22.974-0.001
	c-3.69-0.004-5.549-1.879-5.551-5.597C-0.001,29.78-0.002,17.646,0.005,5.512c0.002-3.603,1.892-5.506,5.477-5.507
	c15.424-0.007,30.849-0.007,46.272,0c3.582,0.001,5.468,1.904,5.469,5.514c0.007,12.188,0.008,24.377-0.001,36.565
	c-0.002,3.494-1.918,5.42-5.395,5.425C44.061,47.52,36.295,47.512,28.528,47.512z M52.985,42.677c0-8.063,0-15.962,0-23.866
	c-15.889,0-31.665,0-47.448,0c0,8.011,0,15.91,0,23.866C21.388,42.677,37.126,42.677,52.985,42.677z M5.557,5.175
	c0,3.342,0,6.493,0,9.588c15.908,0,31.686,0,47.409,0c0-3.283,0-6.436,0-9.588C37.097,5.175,21.358,5.175,5.557,5.175z"/>
</svg>
