<?xml version="1.0" encoding="utf-8"?>
<!-- Generator: Adobe Illustrator 16.0.0, SVG Export Plug-In . SVG Version: 6.00 Build 0)  -->
<!DOCTYPE svg PUBLIC "-//W3C//DTD SVG 1.1//EN" "http://www.w3.org/Graphics/SVG/1.1/DTD/svg11.dtd">
<svg version="1.1" id="圖層_1" xmlns="http://www.w3.org/2000/svg" xmlns:xlink="http://www.w3.org/1999/xlink" x="0px" y="0px"
	 width="57.228px" height="47.516px" viewBox="0 0 57.228 47.516" enable-background="new 0 0 57.228 47.516" xml:space="preserve">
<path fill-rule="evenodd" clip-rule="evenodd" fill="#2173C9" d="M28.53,47.513c-7.658,0-15.315,0.005-22.975-0.002
	c-3.69-0.003-5.55-1.878-5.552-5.595C-0.001,29.782-0.002,17.647,0.005,5.514c0.002-3.605,1.89-5.507,5.475-5.509
	c15.424-0.006,30.849-0.006,46.272,0c3.583,0.002,5.47,1.905,5.471,5.513c0.006,12.188,0.007,24.377-0.001,36.565
	c-0.002,3.494-1.917,5.422-5.393,5.427C44.063,47.521,36.297,47.513,28.53,47.513z M4.835,13.81c15.947,0,31.725,0,47.5,0
	c0-3.051,0-5.986,0-8.918c-15.891,0-31.667,0-47.5,0C4.835,7.901,4.835,10.799,4.835,13.81z M52.335,43.004
	c0-7.962,0-15.753,0-23.543c-7.149,0-14.186,0-21.219,0c0,7.905,0,15.696,0,23.543C38.227,43.004,45.224,43.004,52.335,43.004z
	 M4.835,42.948c7.208,0,14.242,0,21.271,0c0-4.719,0-9.324,0-13.959c-7.151,0-14.185,0-21.271,0
	C4.835,33.691,4.835,38.263,4.835,42.948z M4.865,19.432c0,1.561,0,3.04,0,4.624c7.117,0,14.152,0,21.274,0c0-1.581,0-3.06,0-4.624
	C19.021,19.432,11.986,19.432,4.865,19.432z"/>
<path fill-rule="evenodd" clip-rule="evenodd" fill="#2173C9" d="M37.183,31.619c0.263,0.246,0.723,0.681,1.297,1.219
	c1.715-1.86,3.392-3.678,5.194-5.633c2.84,3.251,5.401,6.18,8.176,9.353c-6.839,0-13.372,0-20.047,0
	C33.603,34.905,35.318,33.33,37.183,31.619z"/>
<circle fill-rule="evenodd" clip-rule="evenodd" fill="#2173C9" cx="36.008" cy="27.204" r="3.081"/>
</svg>
