<?xml version="1.0" encoding="utf-8"?>
<!-- Generator: Adobe Illustrator 16.0.0, SVG Export Plug-In . SVG Version: 6.00 Build 0)  -->
<!DOCTYPE svg PUBLIC "-//W3C//DTD SVG 1.1//EN" "http://www.w3.org/Graphics/SVG/1.1/DTD/svg11.dtd">
<svg version="1.1" id="圖層_1" focusable="false" xmlns="http://www.w3.org/2000/svg" xmlns:xlink="http://www.w3.org/1999/xlink"
	 x="0px" y="0px" width="48.572px" height="34px" viewBox="570.99 403.945 48.572 34"
	 enable-background="new 570.99 403.945 48.572 34" xml:space="preserve">
<path fill="#FFFFFF" d="M578.275,418.516c2.679,0,4.857-2.178,4.857-4.857c0-2.679-2.178-4.857-4.857-4.857
	s-4.857,2.178-4.857,4.857C573.418,416.338,575.596,418.516,578.275,418.516z M612.275,418.516c2.679,0,4.857-2.178,4.857-4.857
	c0-2.679-2.179-4.857-4.857-4.857s-4.857,2.178-4.857,4.857C607.418,416.338,609.596,418.516,612.275,418.516z M614.704,420.945
	h-4.857c-1.336,0-2.542,0.539-3.423,1.412c3.059,1.677,5.229,4.705,5.7,8.303h5.009c1.343,0,2.429-1.085,2.429-2.429v-2.429
	C619.561,423.123,617.383,420.945,614.704,420.945z M595.275,420.945c4.697,0,8.5-3.802,8.5-8.5s-3.803-8.5-8.5-8.5
	c-4.698,0-8.5,3.802-8.5,8.5S590.577,420.945,595.275,420.945z M601.103,423.373h-0.63c-1.578,0.76-3.331,1.215-5.198,1.215
	s-3.612-0.455-5.199-1.215h-0.63c-4.827,0-8.743,3.916-8.743,8.743v2.186c0,2.012,1.631,3.644,3.643,3.644h21.857
	c2.011,0,3.643-1.632,3.643-3.644v-2.186C609.846,427.289,605.93,423.373,601.103,423.373z M584.127,422.356
	c-0.88-0.873-2.087-1.412-3.423-1.412h-4.857c-2.679,0-4.857,2.178-4.857,4.857v2.429c0,1.344,1.085,2.429,2.428,2.429h5.001
	C578.897,427.062,581.068,424.033,584.127,422.356L584.127,422.356z"/>
</svg>
