<?xml version="1.0" encoding="utf-8"?>
<!-- Generator: Adobe Illustrator 16.0.0, SVG Export Plug-In . SVG Version: 6.00 Build 0)  -->
<!DOCTYPE svg PUBLIC "-//W3C//DTD SVG 1.1//EN" "http://www.w3.org/Graphics/SVG/1.1/DTD/svg11.dtd">
<svg version="1.1" id="圖層_1" xmlns="http://www.w3.org/2000/svg" xmlns:xlink="http://www.w3.org/1999/xlink" x="0px" y="0px"
	 width="57.228px" height="47.516px" viewBox="0 0 57.228 47.516" enable-background="new 0 0 57.228 47.516" xml:space="preserve">
<path fill-rule="evenodd" clip-rule="evenodd" fill="#2173C9" d="M28.619,47.513c-7.658,0-15.316,0.004-22.975-0.001
	c-3.805-0.002-5.641-1.847-5.642-5.668c-0.004-12.079-0.004-24.16,0-36.241c0.002-3.718,1.86-5.597,5.549-5.599
	c15.369-0.005,30.739-0.004,46.11,0c3.696,0.001,5.559,1.875,5.561,5.586c0.005,12.135,0.005,24.27-0.001,36.403
	c-0.001,3.611-1.886,5.513-5.466,5.518C44.043,47.519,36.332,47.513,28.619,47.513z M52.392,19.461c-15.948,0-31.725,0-47.5,0
	c0,7.905,0,15.696,0,23.485c15.891,0,31.667,0,47.5,0C52.392,35.081,52.392,27.328,52.392,19.461z M52.392,4.893
	c-15.948,0-31.725,0-47.5,0c0,3.051,0,5.986,0,8.917c15.892,0,31.668,0,47.5,0C52.392,10.799,52.392,7.901,52.392,4.893z"/>
<path fill-rule="evenodd" clip-rule="evenodd" fill="#2173C9" d="M36.542,28.327c1.85-1.452,3.381-2.655,5.069-3.981
	c0,4.412,0,8.59,0,13.053c-1.648-1.293-3.173-2.489-5.067-3.977c0,1.272-0.023,2.199,0.007,3.124
	c0.035,1.085-0.453,1.579-1.541,1.578c-5.764-0.01-11.528-0.002-17.293-0.002c-1.076,0-1.539-0.553-1.534-1.619
	c0.018-3.771,0.021-7.541-0.001-11.313c-0.007-1.13,0.605-1.547,1.608-1.548c5.765-0.007,11.528,0.004,17.293-0.002
	c1.023-0.001,1.468,0.511,1.461,1.496C36.537,26.051,36.542,26.964,36.542,28.327z"/>
</svg>
