<?xml version="1.0" encoding="utf-8"?>
<!-- Generator: Adobe Illustrator 16.0.0, SVG Export Plug-In . SVG Version: 6.00 Build 0)  -->
<!DOCTYPE svg PUBLIC "-//W3C//DTD SVG 1.1//EN" "http://www.w3.org/Graphics/SVG/1.1/DTD/svg11.dtd">
<svg version="1.1" id="圖層_1" xmlns="http://www.w3.org/2000/svg" xmlns:xlink="http://www.w3.org/1999/xlink" x="0px" y="0px"
	 width="38px" height="34px" viewBox="0 0 38 34" enable-background="new 0 0 38 34" xml:space="preserve">
<g transform="matrix(1 0 0 1 -1171 -432 )">
	<path fill="#FFFFFF" d="M1176.429,436.76c3.534,0,6.432,1.594,8.694,4.781c-0.848,1.304-1.816,3.237-2.905,5.802
		c-0.311-0.638-0.573-1.151-0.785-1.541c-0.212-0.39-0.499-0.839-0.859-1.349c-0.36-0.51-0.721-0.91-1.082-1.201
		c-0.361-0.291-0.806-0.539-1.336-0.744c-0.53-0.206-1.106-0.308-1.728-0.308h-4.75c-0.198,0-0.361-0.064-0.488-0.191
		c-0.127-0.127-0.191-0.291-0.191-0.489v-4.08c0-0.198,0.063-0.361,0.191-0.489c0.127-0.127,0.29-0.191,0.488-0.191H1176.429z
		 M1208.809,458.031c0.129,0.127,0.191,0.291,0.191,0.488c0,0.198-0.063,0.36-0.191,0.488l-6.785,6.801
		c-0.127,0.127-0.289,0.19-0.488,0.19c-0.184,0-0.342-0.067-0.477-0.202c-0.135-0.134-0.201-0.294-0.201-0.479v-4.079
		c-0.453,0-1.054,0.004-1.803,0.01c-0.749,0.008-1.322,0.015-1.718,0.021c-0.396,0.009-0.911,0-1.548-0.021
		s-1.139-0.058-1.506-0.104c-0.367-0.051-0.82-0.125-1.357-0.224c-0.537-0.1-0.982-0.229-1.336-0.394s-0.764-0.365-1.229-0.606
		c-0.466-0.239-0.883-0.522-1.251-0.85c-0.368-0.327-0.756-0.705-1.167-1.138c-0.41-0.432-0.806-0.924-1.188-1.477
		c0.834-1.318,1.795-3.252,2.884-5.802c0.311,0.638,0.572,1.151,0.785,1.541s0.498,0.839,0.859,1.349
		c0.359,0.512,0.721,0.91,1.08,1.201c0.361,0.291,0.807,0.539,1.336,0.744c0.531,0.205,1.107,0.308,1.73,0.308h5.428v-4.08
		c0-0.198,0.063-0.36,0.19-0.487c0.128-0.129,0.29-0.191,0.487-0.191c0.17,0,0.34,0.07,0.51,0.212L1208.809,458.031z
		 M1208.809,438.991c0.129,0.127,0.191,0.291,0.191,0.489c0,0.198-0.063,0.361-0.191,0.489l-6.785,6.8
		c-0.127,0.128-0.289,0.191-0.488,0.191c-0.184,0-0.342-0.067-0.477-0.202c-0.135-0.135-0.201-0.294-0.201-0.478v-4.08h-5.429
		c-0.679,0-1.294,0.106-1.845,0.318c-0.553,0.213-1.039,0.531-1.463,0.957c-0.426,0.425-0.785,0.86-1.082,1.307
		c-0.297,0.447-0.615,0.996-0.954,1.647c-0.453,0.878-1.004,2.09-1.654,3.633c-0.41,0.937-0.76,1.722-1.049,2.359
		c-0.29,0.637-0.672,1.381-1.146,2.23c-0.473,0.85-0.926,1.559-1.357,2.125s-0.954,1.154-1.569,1.764
		c-0.615,0.609-1.251,1.096-1.908,1.456c-0.658,0.36-1.41,0.659-2.258,0.894c-0.849,0.232-1.753,0.351-2.714,0.351h-4.75
		c-0.198,0-0.361-0.063-0.488-0.191c-0.127-0.127-0.191-0.29-0.191-0.487v-4.08c0-0.199,0.063-0.361,0.191-0.489
		c0.127-0.128,0.29-0.19,0.488-0.19h4.75c0.678,0,1.293-0.106,1.845-0.318c0.551-0.213,1.039-0.531,1.463-0.956
		c0.424-0.427,0.784-0.861,1.081-1.308c0.297-0.447,0.615-0.996,0.955-1.646c0.452-0.878,1.003-2.09,1.654-3.634
		c0.41-0.935,0.76-1.721,1.05-2.359c0.29-0.637,0.671-1.381,1.145-2.231s0.926-1.559,1.357-2.125
		c0.431-0.567,0.955-1.155,1.569-1.764c0.615-0.609,1.251-1.095,1.909-1.456c0.657-0.361,1.41-0.659,2.259-0.893
		c0.848-0.233,1.752-0.351,2.715-0.351h5.428v-4.08c0-0.199,0.063-0.361,0.19-0.489c0.128-0.128,0.29-0.191,0.487-0.191
		c0.17,0,0.34,0.071,0.51,0.212L1208.809,438.991z"/>
</g>
</svg>
