<?xml version="1.0" encoding="utf-8"?>
<svg version="1.1" xmlns:xlink="http://www.w3.org/1999/xlink" width="44px" height="42px" xmlns="http://www.w3.org/2000/svg">
  <g transform="matrix(1 0 0 1 -28 -21 )">
    <path d="M 20 3.23076923076923  L 20 22.4639423076923  L 33.4583333333333 36.2451923076923  C 31.658950617284 38.0625  29.5582561728395 39.4759615384615  27.15625 40.4855769230769  C 24.7542438271605 41.4951923076923  22.2206790123457 42  19.5555555555556 42  C 16.0077160493827 42  12.735725308642 41.1334134615385  9.73958333333333 39.4002403846154  C 6.74344135802469 37.6670673076923  4.37114197530864 35.3155048076923  2.62268518518519 32.3455528846154  C 0.874228395061728 29.3756009615385  0 26.1322115384615  0 22.6153846153846  C 0 19.0985576923077  0.874228395061728 15.8551682692308  2.62268518518519 12.8852163461538  C 4.37114197530864 9.91526442307692  6.74344135802469 7.56370192307692  9.73958333333333 5.83052884615385  C 12.735725308642 4.09735576923076  16.0077160493827 3.23076923076923  20 3.23076923076923  Z M 38.1944444444444 36.3966346153846  L 24.3171296296296 22  L 44 22  C 44 25.2572115384615  43.4907407407407 27.7686298076923  42.4722222222222 30.1496394230769  C 41.4537037037037 32.5306490384615  40.0277777777778 34.6129807692308  38.1944444444444 36.3966346153846  Z M 39.7476851851852 9.65444711538462  C 41.4961419753086 12.6243990384615  42.3703703703704 15.8677884615385  42.3703703703704 20  L 22 20  L 22 0  C 26.3626543209877 0  29.6346450617284 0.866586538461541  32.630787037037 2.59975961538461  C 35.6269290123457 4.33293269230769  37.9992283950617 6.68449519230769  39.7476851851852 9.65444711538462  Z " fill-rule="nonzero" fill="#ffffff" stroke="none" fill-opacity="0.996078431372549" transform="matrix(1 0 0 1 28 21 )" />
  </g>
</svg>