<?xml version="1.0" encoding="utf-8"?>
<svg version="1.1" xmlns:xlink="http://www.w3.org/1999/xlink" width="44px" height="44px" xmlns="http://www.w3.org/2000/svg">
  <g transform="matrix(1 0 0 1 -28 -20 )">
    <path d="M 1.14793774319066 9.32902723735409  C -0.26879377431906 9.97190661478601  -0.26879377431906 12.1136964980545  1.14793774319066 12.7565758754864  L 21.088326848249 21.8022568093385  C 21.6704280155642 22.0667704280156  22.3287159533074 22.0667704280156  22.9108171206226 21.8022568093385  L 42.8512062256809 12.7565758754864  C 44.2679377431907 12.1136964980545  44.2679377431907 9.97276264591439  42.8512062256809 9.3298832684825  L 22.911673151751 0.283346303501953  C 22.3329688782317 0.0188366391654222  21.6678871528967 0.0188366391654222  21.0891828793774 0.283346303501953  L 1.14793774319066 9.32902723735409  Z M 42.8520622568093 23.7377431906615  C 44.2687937743191 23.095719844358  44.2687937743191 20.9556420233463  42.8520622568093 20.3136186770428  L 37.8793774319066 18.0596887159533  L 24.0424902723735 24.3318287937743  C 23.3953307392996 24.6254474708171  22.7079377431907 24.7743968871595  22 24.7743968871595  C 21.2920622568093 24.7743968871595  20.6055252918288 24.6254474708171  19.9575097276265 24.3318287937743  L 6.12147859922178 18.0596887159533  L 1.14793774319066 20.3136186770428  C -0.26879377431906 20.9556420233463  -0.26879377431906 23.095719844358  1.14793774319066 23.7377431906615  L 21.088326848249 32.7765758754864  C 21.6704280155642 33.040233463035  22.3287159533074 33.040233463035  22.9108171206226 32.7765758754864  L 42.8520622568093 23.7377431906615  Z M 42.8520622568093 34.6778210116732  C 44.2687937743191 34.0357976653697  44.2687937743191 31.895719844358  42.8520622568093 31.2536964980545  L 37.8982101167315 29.008326848249  L 24.0424902723735 35.2890272373541  C 23.3953307392996 35.5826459143969  22.7079377431907 35.7315953307393  22 35.7315953307393  C 21.2920622568093 35.7315953307393  20.6055252918288 35.5826459143969  19.9575097276265 35.2890272373541  L 6.10264591439688 29.008326848249  L 1.14793774319066 31.2536964980545  C -0.26879377431906 31.895719844358  -0.26879377431906 34.0357976653697  1.14793774319066 34.6778210116732  L 21.088326848249 43.7166536964981  C 21.6704280155642 43.9803112840467  22.3287159533074 43.9803112840467  22.9108171206226 43.7166536964981  L 42.8520622568093 34.6778210116732  Z " fill-rule="nonzero" fill="#ffffff" stroke="none" fill-opacity="0.996078431372549" transform="matrix(1 0 0 1 28 20 )" />
  </g>
</svg>