<?xml version="1.0" encoding="utf-8"?>
<svg version="1.1" xmlns:xlink="http://www.w3.org/1999/xlink" width="34px" height="42px" xmlns="http://www.w3.org/2000/svg">
  <g transform="matrix(1 0 0 1 -33 -22 )">
    <path d="M 25.86125 28.8855  L 34 36.9285  L 34 12.6  L 21.25 0  L 4.25 0  C 1.901875 0  0.021249999999999 1.8795  0 4.2  L 0 37.8  C 0 40.1205  1.880625 42  4.22875 42  L 29.75 42  C 30.695625 42  31.566875 41.685  32.268125 41.16  L 22.84375 31.8465  C 21.175625 32.949  19.1675 33.6  17 33.6  C 11.135 33.6  6.375 28.896  6.375 23.1  C 6.375 17.304  11.135 12.6  17 12.6  C 22.865 12.6  27.625 17.304  27.625 23.1  C 27.625 25.242  26.96625 27.2265  25.86125 28.8855  Z M 17 16.8  C 13.483125 16.8  10.625 19.6245  10.625 23.1  C 10.625 26.5755  13.483125 29.4  17 29.4  C 20.516875 29.4  23.375 26.5755  23.375 23.1  C 23.375 19.6245  20.516875 16.8  17 16.8  Z " fill-rule="nonzero" fill="#606060" stroke="none" transform="matrix(1 0 0 1 33 22 )" />
  </g>
</svg>