<?xml version="1.0" encoding="utf-8"?>
<svg version="1.1" xmlns:xlink="http://www.w3.org/1999/xlink" width="22px" height="17px" xmlns="http://www.w3.org/2000/svg">
  <g transform="matrix(1 0 0 1 -1456 -266 )">
    <path d="M 22 1.88888888888889  C 22 0.845277777777778  21.1795833333333 0  20.1666666666667 0  L 6.41666666666667 0  C 5.78416666666667 0  5.28458333333333 0.330555555555556  4.95458333333333 0.831111111111111  L 0 8.49527777777778  L 4.95458333333333 16.1594444444444  C 5.28458333333333 16.66  5.84375 17  6.47625 17  L 20.1666666666667 17  C 21.1795833333333 17  22 16.1547222222222  22 15.1111111111111  L 22 1.88888888888889  Z M 9.625 8.5  C 9.625 9.28388888888889  9.01083333333333 9.91666666666667  8.25 9.91666666666667  C 7.48916666666667 9.91666666666667  6.875 9.28388888888889  6.875 8.5  C 6.875 7.71611111111111  7.48916666666667 7.08333333333333  8.25 7.08333333333333  C 9.01083333333333 7.08333333333333  9.625 7.71611111111111  9.625 8.5  Z M 14.2083333333333 8.5  C 14.2083333333333 9.28388888888889  13.5941666666667 9.91666666666667  12.8333333333333 9.91666666666667  C 12.0725 9.91666666666667  11.4583333333333 9.28388888888889  11.4583333333333 8.5  C 11.4583333333333 7.71611111111111  12.0725 7.08333333333333  12.8333333333333 7.08333333333333  C 13.5941666666667 7.08333333333333  14.2083333333333 7.71611111111111  14.2083333333333 8.5  Z M 18.7916666666667 8.5  C 18.7916666666667 9.28388888888889  18.1775 9.91666666666667  17.4166666666667 9.91666666666667  C 16.6558333333333 9.91666666666667  16.0416666666667 9.28388888888889  16.0416666666667 8.5  C 16.0416666666667 7.71611111111111  16.6558333333333 7.08333333333333  17.4166666666667 7.08333333333333  C 18.1775 7.08333333333333  18.7916666666667 7.71611111111111  18.7916666666667 8.5  Z " fill-rule="nonzero" fill="#00b7ff" stroke="none" transform="matrix(1 0 0 1 1456 266 )" />
  </g>
</svg>