<?xml version="1.0" encoding="utf-8"?>
<!-- Generator: Adobe Illustrator 16.0.0, SVG Export Plug-In . SVG Version: 6.00 Build 0)  -->
<!DOCTYPE svg PUBLIC "-//W3C//DTD SVG 1.1//EN" "http://www.w3.org/Graphics/SVG/1.1/DTD/svg11.dtd">
<svg version="1.1" id="圖層_1" xmlns="http://www.w3.org/2000/svg" xmlns:xlink="http://www.w3.org/1999/xlink" x="0px" y="0px"
	 width="35px" height="35px" viewBox="0 0 35 35" enable-background="new 0 0 35 35" xml:space="preserve">
<circle fill="#E6F6EB" cx="17.501" cy="17.5" r="17.5"/>
<g>
	<path fill="#229754" d="M27.335,24.283H16.058c0,0-1.41,0-1.41-1.425c0-1.424,1.41-5.695,7.05-5.695
		c5.638,0,7.048,4.271,7.048,5.695C28.745,24.283,27.335,24.283,27.335,24.283z"/>
	<ellipse fill="#229754" cx="21.697" cy="11.468" rx="4.229" ry="4.271"/>
	<path fill="#65C98D" d="M7.601,24.283h5.942c-0.209-0.445-0.313-0.932-0.305-1.425c0-1.929,0.959-3.915,2.729-5.296
		c-0.883-0.275-1.805-0.41-2.729-0.399c-5.638,0-7.048,4.271-7.048,5.695C6.19,24.283,7.601,24.283,7.601,24.283z"/>
	<ellipse fill="#65C98D" cx="12.534" cy="12.18" rx="3.524" ry="3.56"/>
</g>
</svg>
