<?xml version="1.0" encoding="utf-8"?>
<!-- Generator: Adobe Illustrator 16.0.0, SVG Export Plug-In . SVG Version: 6.00 Build 0)  -->
<!DOCTYPE svg PUBLIC "-//W3C//DTD SVG 1.1//EN" "http://www.w3.org/Graphics/SVG/1.1/DTD/svg11.dtd">
<svg version="1.1" id="圖層_1" xmlns="http://www.w3.org/2000/svg" xmlns:xlink="http://www.w3.org/1999/xlink" x="0px" y="0px"
	 width="35px" height="35px" viewBox="0 0 35 35" enable-background="new 0 0 35 35" xml:space="preserve">
<circle fill="#F9E8E9" cx="17.501" cy="17.5" r="17.5"/>
<g>
	<path fill="#FFA6A6" d="M21.641,28.788c-0.859,0-2.064-0.311-3.869-1.319c-2.194-1.23-3.893-2.367-6.076-4.544
		c-2.104-2.104-3.129-3.467-4.563-6.075c-1.62-2.945-1.344-4.489-1.035-5.15c0.368-0.788,0.91-1.26,1.612-1.728
		c0.399-0.261,0.819-0.485,1.259-0.668C9.013,9.283,9.054,9.266,9.089,9.25c0.218-0.098,0.548-0.246,0.965-0.088
		c0.278,0.104,0.528,0.319,0.916,0.703c0.801,0.788,1.892,2.543,2.295,3.405c0.271,0.579,0.449,0.964,0.449,1.394
		c0,0.503-0.253,0.891-0.561,1.311c-0.057,0.078-0.114,0.154-0.17,0.227c-0.334,0.44-0.408,0.567-0.359,0.794
		c0.098,0.456,0.828,1.813,2.03,3.011c1.201,1.199,2.521,1.886,2.977,1.982c0.237,0.052,0.366-0.026,0.821-0.373
		c0.063-0.049,0.132-0.101,0.2-0.152c0.472-0.348,0.839-0.594,1.331-0.594h0.002c0.429,0,0.796,0.186,1.401,0.49
		c0.792,0.399,2.6,1.478,3.392,2.277c0.386,0.388,0.601,0.636,0.706,0.914c0.158,0.419,0.01,0.747-0.087,0.968
		c-0.019,0.036-0.035,0.076-0.055,0.12c-0.186,0.438-0.409,0.86-0.672,1.257c-0.468,0.699-0.941,1.24-1.732,1.607
		C22.534,28.696,22.089,28.793,21.641,28.788z"/>
	<path fill="#FF737D" d="M17.141,12.312c-0.32-0.033-0.564-0.303-0.564-0.626c0-0.443,0-0.885,0-1.329
		c0-0.367,0.314-0.657,0.682-0.626c3.904,0.328,7.024,3.449,7.354,7.353c0.031,0.367-0.259,0.682-0.626,0.682
		c-0.443,0-0.886,0-1.329,0c-0.322,0-0.593-0.243-0.625-0.564C21.767,14.627,19.714,12.575,17.141,12.312z"/>
	<path fill="#FD5A5E" d="M17.168,7.783c-0.331-0.019-0.592-0.294-0.592-0.627c0-0.44,0-0.884,0-1.325
		c0-0.359,0.302-0.647,0.662-0.628c6.411,0.335,11.567,5.49,11.901,11.9c0.019,0.359-0.269,0.662-0.63,0.662
		c-0.44,0-0.882,0-1.324,0c-0.332,0-0.607-0.26-0.627-0.593C26.263,12.131,22.212,8.081,17.168,7.783z"/>
</g>
</svg>
