<?xml version="1.0" encoding="utf-8"?>
<!-- Generator: Adobe Illustrator 16.0.0, SVG Export Plug-In . SVG Version: 6.00 Build 0)  -->
<!DOCTYPE svg PUBLIC "-//W3C//DTD SVG 1.1//EN" "http://www.w3.org/Graphics/SVG/1.1/DTD/svg11.dtd">
<svg version="1.1" id="圖層_1" xmlns="http://www.w3.org/2000/svg" xmlns:xlink="http://www.w3.org/1999/xlink" x="0px" y="0px"
	 width="36px" height="25.226px" viewBox="577.41 416.207 36 25.226" enable-background="new 577.41 416.207 36 25.226"
	 xml:space="preserve">
<g>
	<path fill="#FFFFFF" stroke="#FFFFFF" stroke-width="2" stroke-miterlimit="10" d="M589.076,440.433c-0.027,0-0.055,0-0.088,0
		c-0.823-0.026-1.578-0.455-2.019-1.148c-2.767-4.344-7.607-8.382-7.655-8.423c-1.061-0.877-1.21-2.454-0.326-3.515
		c0.877-1.061,2.454-1.21,3.515-0.333c0.184,0.149,3.685,3.072,6.71,6.846c3.059-3.461,9.423-9.871,19.348-16.255
		c1.162-0.748,2.706-0.408,3.454,0.748c0.747,1.163,0.407,2.706-0.748,3.453c-13.475,8.661-20.109,17.52-20.17,17.607
		C590.612,440.053,589.865,440.433,589.076,440.433z"/>
</g>
</svg>
