<?xml version="1.0" encoding="utf-8"?>
<svg version="1.1" xmlns:xlink="http://www.w3.org/1999/xlink" width="28px" height="28px" xmlns="http://www.w3.org/2000/svg">
  <g transform="matrix(1 0 0 1 -53 -3 )">
    <path d="M 23.078125 11.8671875  C 23.296875 11.6484375  23.40625 11.375  23.40625 11.046875  C 23.40625 10.7065972222222  23.296875 10.4270833333333  23.078125 10.2083333333333  L 21.4192708333333 8.56770833333333  C 21.1883680555556 8.33680555555555  20.9149305555556 8.22135416666667  20.5989583333333 8.22135416666667  C 20.2829861111111 8.22135416666667  20.0095486111111 8.33680555555555  19.7786458333333 8.56770833333333  L 12.3411458333333 15.9869791666667  L 8.22135416666667 11.8671875  C 7.99045138888889 11.6362847222222  7.71701388888889 11.5208333333333  7.40104166666667 11.5208333333333  C 7.08506944444445 11.5208333333333  6.81163194444444 11.6362847222222  6.58072916666667 11.8671875  L 4.921875 13.5078125  C 4.703125 13.7265625  4.59375 14.0060763888889  4.59375 14.3463541666667  C 4.59375 14.6744791666667  4.703125 14.9479166666667  4.921875 15.1666666666667  L 11.5208333333333 21.765625  C 11.7517361111111 21.9965277777778  12.0251736111111 22.1119791666667  12.3411458333333 22.1119791666667  C 12.6692708333333 22.1119791666667  12.9487847222222 21.9965277777778  13.1796875 21.765625  L 23.078125 11.8671875  Z M 26.1223958333333 6.97265625  C 27.3741319444444 9.11762152777778  28 11.4600694444444  28 14  C 28 16.5399305555556  27.3741319444444 18.8823784722222  26.1223958333333 21.02734375  C 24.8706597222222 23.1723090277778  23.1723090277778 24.8706597222222  21.02734375 26.1223958333333  C 18.8823784722222 27.3741319444444  16.5399305555556 28  14 28  C 11.4600694444444 28  9.11762152777778 27.3741319444444  6.97265625 26.1223958333333  C 4.82769097222222 24.8706597222222  3.12934027777778 23.1723090277778  1.87760416666667 21.02734375  C 0.625868055555555 18.8823784722222  0 16.5399305555556  0 14  C 0 11.4600694444444  0.625868055555555 9.11762152777778  1.87760416666667 6.97265625  C 3.12934027777778 4.82769097222222  4.82769097222222 3.12934027777778  6.97265625 1.87760416666667  C 9.11762152777778 0.625868055555553  11.4600694444444 0  14 0  C 16.5399305555556 0  18.8823784722222 0.625868055555553  21.02734375 1.87760416666667  C 23.1723090277778 3.12934027777778  24.8706597222222 4.82769097222222  26.1223958333333 6.97265625  Z " fill-rule="nonzero" fill="#ffffff" stroke="none" fill-opacity="0.996078431372549" transform="matrix(1 0 0 1 53 3 )" />
  </g>
</svg>