<?xml version="1.0" encoding="utf-8"?>
<!-- Generator: Adobe Illustrator 16.0.0, SVG Export Plug-In . SVG Version: 6.00 Build 0)  -->
<!DOCTYPE svg PUBLIC "-//W3C//DTD SVG 1.1//EN" "http://www.w3.org/Graphics/SVG/1.1/DTD/svg11.dtd">
<svg version="1.1" id="圖層_1" focusable="false" xmlns="http://www.w3.org/2000/svg" xmlns:xlink="http://www.w3.org/1999/xlink"
	 x="0px" y="0px" width="942.094px" height="841.891px" viewBox="120.547 0 942.094 841.891"
	 enable-background="new 120.547 0 942.094 841.891" xml:space="preserve">
<path fill="none" stroke="#2173C9" stroke-width="80" stroke-miterlimit="10" d="M937.293,789.271H253.257
	c-43.591,0-78.927-35.336-78.927-78.927V131.545c0-43.591,35.336-78.927,78.927-78.927h684.036
	c43.591,0,78.928,35.336,78.928,78.927v578.799C1016.22,753.936,980.884,789.271,937.293,789.271z"/>
<circle fill="#2173C9" cx="384.802" cy="263.091" r="65.773"/>
<circle fill="#2173C9" cx="384.802" cy="420.945" r="65.772"/>
<circle fill="#2173C9" cx="384.802" cy="578.799" r="65.773"/>
<path fill="#2173C9" d="M858.366,289.4v-52.618c0-10.897-8.835-19.732-19.731-19.732H509.77c-10.896,0-19.731,8.835-19.731,19.732
	V289.4c0,10.897,8.835,19.732,19.731,19.732h328.864C849.531,309.132,858.366,300.297,858.366,289.4z"/>
<path fill="#2173C9" d="M858.366,447.254v-52.618c0-10.896-8.835-19.731-19.731-19.731H509.77c-10.896,0-19.731,8.835-19.731,19.731
	v52.618c0,10.897,8.835,19.732,19.731,19.732h328.864C849.531,466.986,858.366,458.151,858.366,447.254z"/>
<path fill="#2173C9" d="M858.366,605.108V552.49c0-10.896-8.835-19.731-19.731-19.731H509.77c-10.896,0-19.731,8.835-19.731,19.731
	v52.618c0,10.897,8.835,19.731,19.731,19.731h328.864C849.531,624.84,858.366,616.006,858.366,605.108z"/>
</svg>
