<svg xmlns="http://www.w3.org/2000/svg" width="225.15" height="208.727" viewBox="0 0 225.15 208.727"><defs><style>.a{fill:#00b7ff;}</style></defs><g transform="translate(-839.03 -101.998)"><path class="a" d="M918.1,184.913a2.862,2.862,0,0,0-3.415,2.181c-1.507,6.834-4.982,13.52-8.083,15.556-.152.1-.294.189-.43.272.451-2.878,1.826-5.725,3.269-8.71.391-.806.778-1.61,1.149-2.415.943-2.048,5.484-14.323,2.9-19.386a4.522,4.522,0,0,0-3.168-2.474c-3.959-.779-6.523,3.978-10.407,11.188a84.131,84.131,0,0,1-6.372,10.588,145.371,145.371,0,0,1,5.416-13.909c2.541-5.928,5.169-12.06,6.759-18.53.673-2.747,2.6-11.915-1-14.562A4.065,4.065,0,0,0,900,144.7c-3.068,1.845-6.074,6.789-9.256,12.024-1.163,1.911-2.358,3.876-3.5,5.573a90.255,90.255,0,0,1,8.276-23.659,2.863,2.863,0,1,0-5.09-2.624,95.851,95.851,0,0,0-8.972,26.027c-.768,4.032.745,7.149,3.764,7.753,2.2.444,4.205-.626,6-3.163,1.455-2.061,2.961-4.538,4.416-6.931a84.658,84.658,0,0,1,5.436-8.247,34.572,34.572,0,0,1-.921,6.457c-1.477,6.011-3.9,11.66-6.46,17.639a121.286,121.286,0,0,0-6.715,18.358c-.569,2.279-.177,4.043,1.155,5.244,1.719,1.551,4.308,1.386,6.593-.42,3.857-3.054,7.243-9.34,10.231-14.886,1.1-2.035,2.446-4.54,3.572-6.3a42.694,42.694,0,0,1-3.144,11.86c-.357.772-.729,1.544-1.1,2.319-1.938,4.009-3.942,8.156-3.993,12.927-.029,2.1.357,2.9.781,3.456a3.764,3.764,0,0,0,3.118,1.435,10.489,10.489,0,0,0,5.557-2.1c5.1-3.35,8.968-12.014,10.535-19.113A2.865,2.865,0,0,0,918.1,184.913Z" transform="translate(18.259 14.034)"/><path class="a" d="M1020.519,206.878V140.4c0-3.279-1.05-5.615-2.72-6.719a1.868,1.868,0,0,0-.219-.183c-.06-.044-3.711-1.7-3.78-1.729a6.136,6.136,0,0,0-5.744.334l-41.58,24.007c-4.689,2.707-8.492,9.972-8.492,16.227v22.824c-2.111-.06-4.234-.1-6.378-.1-2.035,0-4.048.04-6.05.1V111.186c0-3.277-1.051-5.615-2.72-6.718a2,2,0,0,0-.219-.185c-.06-.043-3.713-1.7-3.781-1.729a6.129,6.129,0,0,0-5.742.335L891.513,126.9c-4.691,2.709-8.492,9.973-8.492,16.227v63.623c-26.9,10.472-43.991,27.091-43.991,46.148,0,16.4,12.722,31.431,34.9,42.146L855.9,296.274a5.013,5.013,0,0,0,.338,10.015c.116,0,.232,0,.348-.011l44.909-3.077a5.014,5.014,0,0,0,4.108-7.312l-10.453-20.124a5.014,5.014,0,0,0-8.9,4.621l5.825,11.216c-26.667-9.062-43.018-23.655-43.018-38.708,0-13.755,13.236-26.373,33.964-35.189v36.152c0,3.323,1.073,5.692,2.783,6.776.083.053,3.072,1.477,4.194,2,1.48.818,3.392.728,5.484-.481l41.58-24.006c6.062-4.391,8.494-9.973,8.494-16.227V205.186c2.005-.059,4.019-.1,6.05-.1,2.143,0,4.265.046,6.378.113V283.07c0,3.323,1.074,5.692,2.783,6.776.084.053,3.074,1.477,4.194,2,1.481.819,3.393.728,5.486-.48l41.58-24.007c6.062-4.391,8.492-9.972,8.492-16.225V217.842c20.541,8.809,33.635,21.369,33.635,35.052,0,25.912-46.961,47.8-102.548,47.8a212.238,212.238,0,0,1-21.554-1.087,5.013,5.013,0,0,0-1.021,9.975,222.386,222.386,0,0,0,22.575,1.139c63.126,0,112.574-25.4,112.574-57.831C1064.18,233.916,1047.221,217.359,1020.519,206.878Zm-78.8,14.953a11.735,11.735,0,0,1-5.3,9.283l-35.958,20.761c-2.951,1.7-5.36.308-5.383-3.117l-.265-40.179-.039-5.835h0l-.374-56.6a11.733,11.733,0,0,1,5.3-9.284l35.958-20.76c2.949-1.7,5.754-2.943,5.381,3.115l.5,76.082h0l.066,10.035h0Zm69.664,38.5-35.958,20.76c-2.949,1.7-5.36.308-5.383-3.115l-.476-72.1h0l-.066-10.108h0l-.135-20.41a11.734,11.734,0,0,1,5.3-9.283l35.958-20.761c2.951-1.7,5.755-2.942,5.383,3.117l.678,102.618A11.733,11.733,0,0,1,1011.386,260.329Z"/><path class="a" d="M970.439,205.31a2.867,2.867,0,0,0-3.415,2.18c-1.507,6.834-4.982,13.52-8.083,15.556-.152.1-.3.191-.431.274.451-2.879,1.828-5.725,3.27-8.71.39-.806.778-1.611,1.149-2.416.943-2.048,5.483-14.323,2.9-19.385a4.522,4.522,0,0,0-3.168-2.474c-3.966-.783-6.524,3.978-10.409,11.188a84.031,84.031,0,0,1-6.37,10.586,145.3,145.3,0,0,1,5.416-13.9c2.54-5.931,5.168-12.063,6.758-18.533.675-2.746,2.6-11.913-.994-14.562a4.068,4.068,0,0,0-4.724-.014c-3.067,1.843-6.073,6.788-9.256,12.021-1.16,1.912-2.356,3.877-3.495,5.576a90.189,90.189,0,0,1,8.275-23.66,2.864,2.864,0,0,0-5.091-2.624,95.831,95.831,0,0,0-8.971,26.027c-.768,4.033.743,7.15,3.764,7.755,2.194.441,4.2-.626,6-3.163,1.457-2.061,2.962-4.539,4.419-6.934a84.63,84.63,0,0,1,5.434-8.246,34.45,34.45,0,0,1-.922,6.457c-1.477,6.013-3.9,11.662-6.46,17.643a121.161,121.161,0,0,0-6.713,18.354c-.567,2.277-.179,4.042,1.154,5.245,1.722,1.551,4.311,1.385,6.593-.42,3.856-3.054,7.242-9.34,10.23-14.886,1.1-2.035,2.448-4.543,3.572-6.3a42.639,42.639,0,0,1-3.142,11.861c-.357.773-.73,1.545-1.1,2.32-1.938,4.009-3.942,8.156-4,12.94-.017,1.987.3,2.814.783,3.443a3.767,3.767,0,0,0,3.117,1.434,10.488,10.488,0,0,0,5.559-2.1c5.1-3.352,8.968-12.013,10.535-19.111A2.865,2.865,0,0,0,970.439,205.31Z" transform="translate(40.886 22.852)"/></g></svg>