<?xml version="1.0" encoding="utf-8"?>
<svg version="1.1" xmlns:xlink="http://www.w3.org/1999/xlink" width="36px" height="42px" xmlns="http://www.w3.org/2000/svg">
  <g transform="matrix(1 0 0 1 -32 -22 )">
    <path d="M 27.09375 1.59375  L 34.40625 8.90625  C 34.84375 9.34375  35.21875 9.9375  35.53125 10.6875  C 35.84375 11.4375  36 12.125  36 12.75  L 36 39.75  C 36 40.375  35.78125 40.90625  35.34375 41.34375  C 34.90625 41.78125  34.375 42  33.75 42  L 2.25 42  C 1.625 42  1.09375 41.78125  0.65625 41.34375  C 0.21875 40.90625  0 40.375  0 39.75  L 0 2.25  C 0 1.625  0.21875 1.09375  0.65625 0.65625  C 1.09375 0.218750000000002  1.625 0  2.25 0  L 23.25 0  C 23.875 0  24.5625 0.156250000000002  25.3125 0.468750000000001  C 26.0625 0.78125  26.65625 1.15625  27.09375 1.59375  Z M 24.9609375 3.703125  C 24.7734375 3.515625  24.453125 3.34375  24 3.1875  L 24 12  L 32.8125 12  C 32.65625 11.546875  32.484375 11.2265625  32.296875 11.0390625  L 24.9609375 3.703125  Z M 3 39  L 33 39  L 33 15  L 23.25 15  C 22.625 15  22.09375 14.78125  21.65625 14.34375  C 21.21875 13.90625  21 13.375  21 12.75  L 21 3  L 3 3  L 3 39  Z M 9 18  L 18 18  C 18.8125 18  19.515625 18.296875  20.109375 18.890625  C 20.703125 19.484375  21 20.1875  21 21  L 21 30  C 21 30.8125  20.703125 31.515625  20.109375 32.109375  C 19.515625 32.703125  18.8125 33  18 33  L 9 33  C 8.1875 33  7.484375 32.703125  6.890625 32.109375  C 6.296875 31.515625  6 30.8125  6 30  L 6 21  C 6 20.1875  6.296875 19.484375  6.890625 18.890625  C 7.484375 18.296875  8.1875 18  9 18  Z M 29.25 18  C 29.3125 18  29.40625 18.015625  29.53125 18.046875  C 29.84375 18.171875  30 18.40625  30 18.75  L 30 32.25  C 30 32.59375  29.84375 32.828125  29.53125 32.953125  C 29.40625 32.984375  29.3125 33  29.25 33  C 29.03125 33  28.8515625 32.9296875  28.7109375 32.7890625  L 22.5 26.5546875  L 22.5 24.4453125  L 28.7109375 18.2109375  C 28.8515625 18.0703125  29.03125 18  29.25 18  Z " fill-rule="nonzero" fill="#ffffff" stroke="none" transform="matrix(1 0 0 1 32 22 )" />
  </g>
</svg>