<?xml version="1.0" encoding="utf-8"?>
<svg version="1.1" xmlns:xlink="http://www.w3.org/1999/xlink" width="21px" height="21px" xmlns="http://www.w3.org/2000/svg">
  <g transform="matrix(1 0 0 1 -1746 -27 )">
    <path d="M 20.78125 20.73225  C 20.75390625 19.4775  20.483203125000003 18.256875  19.974609375 17.104499999999998  C 19.458798516622565 15.931578005811403  18.710263843746826 14.866169846105393  17.770703125 13.967625000000002  C 16.833996108305385 13.066487215616906  15.72437777940039 12.348011669028178  14.503124999999999 11.851875  C 14.4921875 11.846625  14.48125 11.844000000000001  14.470312499999999 11.83875  C 16.173828125 10.657499999999999  17.28125 8.733375  17.28125 6.5625  C 17.28125 2.9662499999999996  14.24609375 0.0525  10.5 0.0525  C 6.75390625 0.0525  3.71875 2.9662499999999996  3.71875 6.5625  C 3.71875 8.733375  4.826171875 10.657499999999999  6.5296875000000005 11.841375000000001  C 6.518750000000002 11.846625000000001  6.5078125 11.849249999999998  6.496875 11.8545  C 5.271875 12.350625  4.172656250000001 13.062  3.2292968750000006 13.97025  C 2.290611682934278 14.869488736026835  1.542199655237686 15.93472233177563  1.0253906250000007 17.107125  C 0.5176778054691777 18.254914162209566  0.24385684299193255 19.485493413781878  0.21875 20.73225  C 0.218704421563108 20.73399966152937  0.21868162967331062 20.735749801700024  0.21868162967331062 20.737500010257193  C 0.21868162967331062 20.85347980772166  0.3166193406478246 20.947500010257194  0.4374316296733106 20.947500010257194  L 2.078125 20.9475  C 2.1984375000000003 20.9475  2.2941406250000003 20.855625  2.296875 20.74275  C 2.3515625 18.71625  3.19921875 16.818375  4.6976562500000005 15.379875000000002  C 6.248046875 13.891500000000002  8.30703125 13.072500000000003  10.5 13.072500000000003  C 12.692968750000002 13.072500000000003  14.751953125 13.891500000000004  16.302343750000002 15.379875000000002  C 17.80078125 16.818375  18.6484375 18.71625  18.703125 20.74275  C 18.705859375 20.85825  18.801562500000003 20.9475  18.921875 20.9475  L 20.5625 20.9475  C 20.683380659352174 20.947500010257194  20.781318370326687 20.85347980772166  20.781318370326687 20.737500010257193  C 20.781318370326687 20.735749801700063  20.78129557843689 20.73399966152933  20.78125 20.73225  Z M 13.825 9.7545  C 12.936328125000001 10.607625  11.755078124999999 11.077499999999999  10.5 11.077499999999999  C 9.244921875000001 11.077499999999999  8.063671874999999 10.607625  7.174999999999999 9.7545  C 6.286328124999999 8.901375  5.796875 7.7673749999999995  5.796875 6.5625  C 5.796875 5.3576250000000005  6.286328124999999 4.223624999999999  7.174999999999999 3.3705000000000003  C 8.063671874999999 2.517375000000001  9.244921875000001 2.0475  10.5 2.0475  C 11.755078124999999 2.0475  12.936328125000001 2.5173750000000004  13.825 3.3705000000000003  C 14.713671875000001 4.223624999999999  15.203125 5.3576250000000005  15.203125 6.5625  C 15.203125 7.7673749999999995  14.713671875000001 8.901375  13.825 9.7545  Z " fill-rule="nonzero" fill="#ffffff" stroke="none" fill-opacity="0.996078431372549" transform="matrix(1 0 0 1 1746 27 )" />
  </g>
</svg>