<?xml version="1.0" encoding="utf-8"?>
<svg version="1.1" xmlns:xlink="http://www.w3.org/1999/xlink" width="38px" height="34px" xmlns="http://www.w3.org/2000/svg">
  <g transform="matrix(1 0 0 1 -1171 -432 )">
    <path d="M 5.428571428571428 4.760000000000001  C 8.96279761904762 4.760000000000001  11.860863095238097 6.353750000000001  14.122767857142856 9.54125  C 13.274553571428571 10.844583333333329  12.306175595238097 12.77833333333333  11.217633928571429 15.342500000000001  C 10.906622023809526 14.705  10.645089285714286 14.191458333333332  10.433035714285715 13.801874999999999  C 10.220982142857144 13.412291666666665  9.934709821428571 12.962499999999999  9.57421875 12.452499999999999  C 9.213727678571429 11.942499999999999  8.85323660714286 11.542291666666664  8.492745535714286 11.251875  C 8.132254464285714 10.961458333333333  7.686941964285714 10.71354166666666  7.156808035714286 10.508125  C 6.626674107142858 10.302708333333332  6.050595238095239 10.200000000000001  5.428571428571428 10.200000000000001  L 0.6785714285714285 10.200000000000001  C 0.4806547619047619 10.200000000000001  0.3180803571428572 10.136249999999999  0.1908482142857143 10.008750000000003  C 0.06361607142857142 9.881250000000001  0 9.718333333333332  0 9.520000000000001  L 0 5.440000000000001  C 0 5.241666666666664  0.06361607142857142 5.078750000000001  0.1908482142857143 4.95125  C 0.3180803571428572 4.823749999999999  0.4806547619047619 4.760000000000001  0.6785714285714285 4.760000000000001  L 5.428571428571428 4.760000000000001  Z M 37.809151785714285 26.03125  C 37.93638392857143 26.15875  38 26.321666666666662  38 26.52  C 38 26.71833333333333  37.93638392857143 26.88125  37.809151785714285 27.008750000000003  L 31.0234375 33.80875  C 30.896205357142858 33.93625  30.733630952380956 34  30.53571428571429 34  C 30.35193452380953 34  30.1928943452381 33.93270833333333  30.05859375 33.798125  C 29.924293154761905 33.66354166666667  29.857142857142858 33.50416666666667  29.857142857142858 33.32  L 29.857142857142858 29.24  C 29.404761904761905 29.24  28.803943452380956 29.243541666666665  28.0546875 29.250625  C 27.30543154761905 29.257708333333333  26.732886904761905 29.26479166666667  26.33705357142857 29.271875  C 25.94122023809524 29.278958333333332  25.42522321428571 29.271875  24.7890625 29.250625  C 24.15290178571429 29.229374999999997  23.651041666666668 29.193958333333335  23.283482142857142 29.144375  C 22.91592261904762 29.094791666666666  22.463541666666668 29.02041666666667  21.92633928571429 28.92125  C 21.389136904761905 28.82208333333333  20.943824404761905 28.691041666666667  20.59040178571429 28.528125000000003  C 20.236979166666668 28.36520833333333  19.82700892857143 28.16333333333333  19.36049107142857 27.9225  C 18.893973214285715 27.681666666666665  18.476934523809526 27.398333333333333  18.109375 27.0725  C 17.741815476190478 26.74666666666667  17.3530505952381 26.367708333333333  16.943080357142858 25.935625  C 16.53311011904762 25.503541666666663  16.137276785714285 25.01125  15.755580357142856 24.45875  C 16.58965773809524 23.14125  17.550967261904763 21.2075  18.639508928571427 18.657500000000002  C 18.950520833333336 19.295  19.21205357142857 19.808541666666663  19.424107142857142 20.198124999999997  C 19.63616071428571 20.58770833333333  19.92243303571429 21.0375  20.282924107142858 21.5475  C 20.64341517857143 22.057499999999997  21.00390625 22.45770833333333  21.36439732142857 22.748125  C 21.724888392857142 23.038541666666664  22.170200892857142 23.286458333333332  22.70033482142857 23.491875  C 23.23046875 23.69729166666667  23.80654761904762 23.799999999999997  24.42857142857143 23.799999999999997  L 29.857142857142858 23.799999999999997  L 29.857142857142858 19.720000000000002  C 29.857142857142858 19.52166666666667  29.92075892857143 19.35875  30.04799107142857 19.231250000000003  C 30.17522321428571 19.10375  30.33779761904762 19.040000000000003  30.53571428571429 19.040000000000003  C 30.705357142857142 19.040000000000003  30.875 19.110833333333332  31.044642857142858 19.252499999999998  L 37.809151785714285 26.03125  Z M 37.809151785714285 6.991249999999998  C 37.93638392857143 7.1187499999999995  38 7.2816666666666645  38 7.479999999999999  C 38 7.678333333333333  37.93638392857143 7.841249999999999  37.809151785714285 7.96875  L 31.0234375 14.768749999999999  C 30.896205357142858 14.89625  30.733630952380956 14.959999999999997  30.53571428571429 14.959999999999997  C 30.35193452380953 14.959999999999997  30.1928943452381 14.892708333333331  30.05859375 14.758125  C 29.924293154761905 14.623541666666664  29.857142857142858 14.464166666666664  29.857142857142858 14.280000000000001  L 29.857142857142858 10.200000000000001  L 24.42857142857143 10.200000000000001  C 23.75 10.200000000000001  23.135044642857142 10.306249999999999  22.583705357142858 10.518749999999999  C 22.03236607142857 10.731250000000001  21.54464285714286 11.049999999999999  21.12053571428571 11.475000000000001  C 20.696428571428573 11.899999999999999  20.335937500000004 12.335625  20.0390625 12.781875000000001  C 19.742187500000004 13.228124999999999  19.424107142857142 13.777083333333332  19.08482142857143 14.428749999999997  C 18.632440476190478 15.307083333333333  18.081101190476193 16.518333333333334  17.430803571428573 18.0625  C 17.020833333333336 18.997500000000002  16.670944940476193 19.783749999999998  16.381138392857142 20.42125  C 16.091331845238095 21.05875  15.709635416666668 21.8025  15.236049107142856 22.6525  C 14.76246279761905 23.502499999999998  14.310081845238097 24.210833333333333  13.87890625 24.7775  C 13.447730654761905 25.344166666666666  12.924665178571429 25.93208333333333  12.309709821428571 26.54125  C 11.694754464285715 27.15041666666667  11.05859375 27.635624999999997  10.401227678571429 27.996875000000003  C 9.74386160714286 28.358125  8.991071428571429 28.655625  8.142857142857142 28.889375  C 7.294642857142858 29.123125  6.3898809523809526 29.24  5.428571428571428 29.24  L 0.6785714285714285 29.24  C 0.4806547619047619 29.24  0.3180803571428572 29.17625  0.1908482142857143 29.04875  C 0.06361607142857142 28.92125  0 28.758333333333333  0 28.56  L 0 24.48  C 0 24.281666666666666  0.06361607142857142 24.11875  0.1908482142857143 23.991249999999997  C 0.3180803571428572 23.86375  0.4806547619047619 23.799999999999997  0.6785714285714285 23.799999999999997  L 5.428571428571428 23.799999999999997  C 6.107142857142858 23.799999999999997  6.722098214285714 23.69375  7.2734375 23.481250000000003  C 7.824776785714286 23.268749999999997  8.3125 22.950000000000003  8.736607142857142 22.525  C 9.160714285714286 22.1  9.521205357142856 21.664375  9.818080357142856 21.218125  C 10.114955357142856 20.771875  10.433035714285715 20.222916666666663  10.772321428571429 19.571250000000003  C 11.224702380952381 18.69291666666667  11.776041666666668 17.481666666666666  12.426339285714285 15.9375  C 12.836309523809526 15.002500000000001  13.186197916666668 14.216249999999999  13.476004464285715 13.578750000000001  C 13.765811011904765 12.94125  14.147507440476193 12.1975  14.62109375 11.3475  C 15.09468005952381 10.497499999999999  15.547061011904765 9.789166666666665  15.978236607142856 9.2225  C 16.409412202380953 8.655833333333332  16.932477678571427 8.067916666666664  17.547433035714285 7.458749999999999  C 18.162388392857142 6.849583333333332  18.798549107142858 6.364374999999998  19.45591517857143 6.003124999999999  C 20.11328125 5.641874999999999  20.86607142857143 5.344375000000001  21.71428571428571 5.110624999999999  C 22.5625 4.876875  23.467261904761905 4.760000000000001  24.42857142857143 4.760000000000001  L 29.857142857142858 4.760000000000001  L 29.857142857142858 0.6800000000000006  C 29.857142857142858 0.4816666666666627  29.92075892857143 0.31875000000000075  30.04799107142857 0.1912499999999997  C 30.17522321428571 0.06374999999999864  30.33779761904762 0  30.53571428571429 0  C 30.705357142857142 0  30.875 0.07083333333333308  31.044642857142858 0.21249999999999925  L 37.809151785714285 6.991249999999998  Z " fill-rule="nonzero" fill="#797979" stroke="none" transform="matrix(1 0 0 1 1171 432 )" />
  </g>
</svg>