<?xml version="1.0" encoding="utf-8"?>
<svg version="1.1" xmlns:xlink="http://www.w3.org/1999/xlink" width="45px" height="34px" xmlns="http://www.w3.org/2000/svg">
  <g transform="matrix(1 0 0 1 -1036 -614 )">
    <path d="M 42.1875 34  L 19.6875 34  C 19.6875 34  16.875 34  16.875 31.166666666666664  C 16.875 28.333333333333336  19.6875 19.833333333333336  30.9375 19.833333333333336  C 42.1875 19.833333333333336  45 28.333333333333336  45 31.166666666666664  C 45 34  42.1875 34  42.1875 34  Z M 22.5 8.500000000000002  C 22.5 13.194420373561748  26.277597423302677 17  30.9375 17  C 35.59740257669731 17  39.37499999999999 13.194420373561748  39.37499999999999 8.500000000000002  C 39.37499999999999 3.805579626438263  35.59740257669731 0  30.9375 0  C 26.277597423302677 0  22.5 3.8055796264382558  22.5 8.500000000000002  Z M 2.8125 34  L 14.67 33.99999999999999  C 14.25306121851219 33.115476638053146  14.04512881426036 32.1456958774822  14.0625 31.166666666666664  C 14.0625 27.327500000000004  15.975 23.375  19.507499999999997 20.626666666666665  C 17.74431938489887 20.07936849552588  15.907355633847217 19.811723945326744  14.0625 19.833333333333336  C 2.8125 19.833333333333336  0 28.333333333333336  0 31.166666666666664  C 0 34  2.8125 34  2.8125 34  Z M 5.624999999999999 9.916666666666666  C 5.624999999999999 13.828683644634786  8.772997852752233 17  12.656249999999998 17  C 16.539502147247767 17  19.687499999999993 13.828683644634786  19.687499999999993 9.916666666666666  C 19.687499999999993 6.004649688698549  16.539502147247767 2.8333333333333353  12.656249999999998 2.8333333333333353  C 8.772997852752233 2.8333333333333353  5.624999999999999 6.0046496886985485  5.624999999999999 9.916666666666666  Z " fill-rule="nonzero" fill="#797979" stroke="none" transform="matrix(1 0 0 1 1036 614 )" />
  </g>
</svg>