<?xml version="1.0" encoding="utf-8"?>
<!-- Generator: Adobe Illustrator 16.0.0, SVG Export Plug-In . SVG Version: 6.00 Build 0)  -->
<!DOCTYPE svg PUBLIC "-//W3C//DTD SVG 1.1//EN" "http://www.w3.org/Graphics/SVG/1.1/DTD/svg11.dtd">
<svg version="1.1" id="圖層_1" xmlns="http://www.w3.org/2000/svg" xmlns:xlink="http://www.w3.org/1999/xlink" x="0px" y="0px"
	 width="45px" height="34px" viewBox="0 0 45 34" enable-background="new 0 0 45 34" xml:space="preserve">
<g transform="matrix(1 0 0 1 -1036 -614 )">
	<path fill="#FFFFFF" d="M1078.188,648h-22.5c0,0-2.813,0-2.813-2.834c0-2.832,2.813-11.332,14.063-11.332
		c11.25,0,14.063,8.5,14.063,11.332C1081,648,1078.188,648,1078.188,648z M1058.5,622.5c0,4.694,3.777,8.5,8.438,8.5
		c4.662,0,8.438-3.806,8.438-8.5s-3.776-8.5-8.438-8.5C1062.277,614,1058.5,617.806,1058.5,622.5z M1038.813,648h11.857
		c-0.417-0.885-0.625-1.854-0.607-2.834c0-3.838,1.913-7.791,5.445-10.539c-1.763-0.548-3.6-0.814-5.445-0.793
		c-11.25,0-14.063,8.5-14.063,11.332C1036,648,1038.813,648,1038.813,648z M1041.625,623.917c0,3.912,3.148,7.083,7.031,7.083
		c3.883,0,7.031-3.171,7.031-7.083s-3.148-7.083-7.031-7.083C1044.773,616.834,1041.625,620.005,1041.625,623.917z"/>
</g>
</svg>
